<svg width="42" height="42" viewBox="0 0 42 42" fill="none" xmlns="http://www.w3.org/2000/svg">
<path d="M16.8854 6.02168C13.2162 2.35433 6.03596 1.92908 0.953578 1.92908C0.42722 1.92908 0 2.35621 0 2.88257C0 7.96495 0.423376 15.1452 4.0926 18.8145C5.64119 20.3631 8.01553 21.0554 10.3689 21.0554C12.9263 21.0554 15.4608 20.2372 16.8854 18.8126C19.6183 16.0797 20.1199 9.25421 16.8854 6.02168ZM15.5372 17.4661C13.4965 19.5048 7.83057 19.8538 5.44291 17.4661C2.48116 14.5045 1.96812 8.48755 1.91279 3.84187C6.55848 3.8972 12.5754 4.41015 15.5371 7.3719C17.9248 9.75956 17.5758 15.4275 15.5372 17.4661Z" fill="#48C0C2"/>
<path d="M41.0466 5.70129C35.9643 5.70129 28.784 6.12467 25.1147 9.79389C21.8803 13.0264 22.3818 19.8519 25.1147 22.5848C26.5393 24.0075 29.072 24.8257 31.6294 24.8257C33.9827 24.8257 36.3552 24.1353 37.9075 22.5868C41.5749 18.9176 42.0001 11.7373 42.0001 6.65487C42.0002 6.12851 41.573 5.70129 41.0466 5.70129ZM36.5554 21.2365C34.1678 23.6241 28.4998 23.2751 26.4612 21.2365C24.4225 19.1978 24.0735 13.5299 26.4612 11.1422C29.4229 8.18049 35.4398 7.66754 40.0855 7.6122C40.0302 12.2598 39.5172 18.2767 36.5554 21.2365Z" fill="#48C0C2"/>
<path d="M34.159 13.9552C33.934 13.4765 33.2894 13.3125 32.8145 13.5337C25.5008 16.9722 21.9078 22.9681 20.2753 29.1318C18.2557 16.0262 12.4142 12.0309 9.93692 10.3355C9.62797 10.1238 9.38768 9.96934 9.25421 9.83775C8.88233 9.46587 8.27775 9.46587 7.90587 9.83775C7.53398 10.2096 7.53398 10.8142 7.90587 11.1861C8.09467 11.373 8.42078 11.6076 8.86132 11.9089C11.6533 13.8179 19.07 18.8927 19.07 39.1174C19.07 39.6438 19.4972 40.071 20.0236 40.071C20.5499 40.071 20.9771 39.6438 20.9771 39.1194C20.9771 30.9475 23.1722 20.1743 33.6269 15.2616C33.6269 15.2597 33.7814 15.1872 33.7814 15.1872C34.2563 14.9622 34.384 14.4319 34.159 13.9552Z" fill="#48C0C2"/>
</svg>
