<svg width="42" height="42" viewBox="0 0 42 42" fill="none" xmlns="http://www.w3.org/2000/svg">
<g clip-path="url(#clip0)">
<path d="M25.7496 17.0987L19.4391 23.0591L16.4105 19.9433C16.0748 19.5977 15.5219 19.5898 15.1766 19.9256C14.831 20.2616 14.8231 20.8142 15.1588 21.1598L18.7912 24.8886C19.1287 25.2281 19.674 25.2398 20.0255 24.9146L26.9665 18.3678C27.135 18.2089 27.2335 17.9894 27.24 17.7579C27.2465 17.5264 27.1607 17.3018 27.0014 17.1336C26.6636 16.7824 26.1066 16.767 25.7496 17.0987Z" fill="#48C0C2"/>
<path d="M21.0686 7.92566C13.8565 7.92566 7.99219 13.79 7.99219 21.0021C7.99219 28.2146 13.8565 34.0789 21.0686 34.0789C28.2811 34.0789 34.1454 28.2146 34.1454 21.0021C34.1454 13.79 28.2811 7.92566 21.0686 7.92566ZM21.0686 32.3284C14.8193 32.3284 9.74273 27.2429 9.74273 21.0021C9.74273 14.7613 14.8193 9.67621 21.0686 9.67621C27.3241 9.67621 32.3949 14.747 32.3949 21.0021C32.3949 27.2572 27.3241 32.3284 21.0686 32.3284Z" fill="#48C0C2"/>
<path d="M39.0633 16.1881L39.3522 10.9976C39.3724 10.6492 39.183 10.322 38.8708 10.1661L34.2493 7.82922L31.9124 3.2077C31.7534 2.89828 31.4282 2.70989 31.0809 2.7263L25.8815 3.00667L21.5489 0.144247C21.257 -0.048245 20.8785 -0.048245 20.5861 0.144247L16.2535 3.00667L11.0634 2.71776C10.7147 2.69724 10.3878 2.88666 10.2319 3.19916L7.89467 7.82067L3.2735 10.1576C2.96373 10.3162 2.77569 10.6414 2.7921 10.9891L3.08066 16.1795L0.218588 20.5121C0.0260958 20.8041 0.0260958 21.1826 0.218588 21.4749L3.07212 25.8161L2.78321 31.0065C2.76304 31.3549 2.95211 31.6821 3.26461 31.838L7.88612 34.175L10.223 38.7965C10.3817 39.1062 10.7068 39.2943 11.0545 39.2779L16.245 38.989L20.5776 41.851C20.8679 42.0497 21.2501 42.0497 21.5404 41.851L25.873 38.989L31.0634 39.2779C31.4118 39.298 31.7387 39.1086 31.8949 38.7965L34.2319 34.175L38.8534 31.838C39.1628 31.6791 39.3512 31.3542 39.3348 31.0065L39.0459 25.8161L41.9079 21.4835C42.1004 21.1915 42.1004 20.8127 41.9079 20.5207L39.0633 16.1881ZM37.4352 25.0984C37.3285 25.255 37.2789 25.4434 37.2953 25.6325L37.5664 30.5426L33.199 32.7482C33.0325 32.8316 32.8974 32.967 32.814 33.1335L30.608 37.501L25.6979 37.2299C25.5099 37.223 25.3242 37.2716 25.1639 37.3697L21.0675 40.0745L16.9715 37.3697C16.8293 37.2736 16.6618 37.2217 16.4901 37.221H16.4464L11.5359 37.4924L9.33032 33.1246C9.2469 32.9581 9.11185 32.8231 8.945 32.7396L4.56863 30.5426L4.8401 25.6325C4.84694 25.4444 4.79805 25.2588 4.69992 25.0984L1.99546 21.0021L4.69992 16.9057C4.80694 16.7495 4.85651 16.5608 4.8401 16.372L4.56863 11.4616L8.93645 9.25598C9.10296 9.17256 9.23801 9.03751 9.32143 8.871L11.5271 4.50318L16.4375 4.77465C16.6252 4.78115 16.8108 4.7326 16.9715 4.63447L21.0675 1.93001L25.1639 4.63447C25.3205 4.74148 25.5092 4.79106 25.6979 4.77465L30.608 4.50318L32.814 8.871C32.8974 9.03751 33.0325 9.17256 33.199 9.25598L37.5664 11.4616L37.2953 16.372C37.2885 16.5597 37.3374 16.7454 37.4352 16.9057L40.14 21.0021L37.4352 25.0984Z" fill="#48C0C2"/>
</g>
<defs>
<clipPath id="clip0">
<rect width="42" height="42" fill="white"/>
</clipPath>
</defs>
</svg>
