<svg width="50" height="50" viewBox="0 0 50 50" fill="none" xmlns="http://www.w3.org/2000/svg">
<g clip-path="url(#clip0)">
<path d="M42.3278 8.65271C42.4281 7.93401 41.6108 7.61729 41.3358 7.51283L28.9785 2.79704C28.3526 2.55887 27.4308 1.89283 27.0097 1.3722L26.4815 0.722034C26.1021 0.256556 25.5907 0 25.0424 0C24.4675 0 23.9268 0.290819 23.5566 0.793903L23.2758 1.17581C22.8847 1.70814 22.0031 2.38254 21.3863 2.61988L8.66215 7.50948C8.38971 7.61562 7.57492 7.93318 7.67269 8.64936C7.67186 8.67025 7.66016 8.6878 7.66016 8.70953V13.4663C7.66016 13.8682 7.98524 14.1925 8.3872 14.1925C8.78917 14.1925 9.11342 13.8674 9.11342 13.4663V9.43574H20.3827L13.3529 49.1476C13.2827 49.5429 13.5467 49.9198 13.9429 49.9883C14.3356 50.061 14.7134 49.7953 14.7836 49.4008L16.4574 39.9475H33.6199L35.5128 49.4167C35.583 49.761 35.8855 50 36.2248 50C36.2724 50 36.3201 49.9958 36.3677 49.985C36.7613 49.9064 37.017 49.5245 36.9393 49.1317L29.0095 9.43574H40.8854V13.4663C40.8854 13.8682 41.2113 14.1925 41.6116 14.1925C42.0144 14.1925 42.3395 13.8674 42.3395 13.4663V8.70953C42.3403 8.68864 42.3295 8.67193 42.3278 8.65271ZM19.7133 21.5616H23.2549L18.7155 27.1908L19.7133 21.5616ZM19.0272 29.1212L24.7859 21.9777L30.787 29.1212H19.0272ZM29.1858 30.5736L24.8319 33.1216L20.2882 30.5736H29.1858ZM18.0444 30.9814L23.3786 33.9715L16.8393 37.7973L18.0444 30.9814ZM18.5299 38.4926L24.8469 34.7955L31.4388 38.4926H18.5299ZM33.1954 37.8123L26.3002 33.9456L31.7831 30.7374L33.1954 37.8123ZM31.0786 27.21L26.3328 21.5624H29.9496L31.0786 27.21ZM29.6596 20.1083H19.9698L21.7615 9.98646H27.6381L29.6596 20.1083ZM11.4818 7.98332L21.907 3.97536C22.7786 3.64109 23.8951 2.78785 24.4474 2.03573L24.7274 1.65466C24.9154 1.39727 25.1553 1.39643 25.3542 1.63962L25.8823 2.28895C26.4656 3.0068 27.5997 3.82661 28.4612 4.15504L38.4945 7.98332H11.4818Z" fill="#48C0C2"/>
</g>
<defs>
<clipPath id="clip0">
<rect width="50" height="50" fill="white"/>
</clipPath>
</defs>
</svg>
