<svg width="31" height="31" viewBox="0 0 31 31" fill="none" xmlns="http://www.w3.org/2000/svg">
<path d="M20.9279 14.5793C20.9257 14.5793 20.9237 14.5793 20.9215 14.5793H18.3254V11.9768C18.3289 11.4519 17.9063 11.0235 17.3814 11.02C17.3792 11.02 17.3771 11.02 17.375 11.02H13.6244C13.0995 11.02 12.674 11.4456 12.674 11.9704V14.5729H10.0779C9.553 14.5694 9.1246 14.992 9.12109 15.5169C9.12109 15.5212 9.12109 15.5254 9.12109 15.5297V19.2739C9.12109 19.7988 9.54663 20.2243 10.0715 20.2243H12.674V22.8204C12.6705 23.3453 13.0931 23.7737 13.618 23.7772C13.6202 23.7772 13.6223 23.7772 13.6244 23.7772H17.3686C17.8935 23.7772 18.319 23.3517 18.319 22.8268V20.2243H20.9215C21.4464 20.2278 21.8748 19.8052 21.8783 19.2803C21.8783 19.2782 21.8783 19.276 21.8783 19.2739V15.5297C21.8783 15.0048 21.4528 14.5793 20.9279 14.5793ZM20.6026 18.9486H17.6876C17.3353 18.9486 17.0497 19.2342 17.0497 19.5865V22.5015H13.9497V19.5865C13.9497 19.2342 13.6641 18.9486 13.3118 18.9486H10.3968V15.855H13.3118C13.6641 15.855 13.9497 15.5694 13.9497 15.2171V12.2957H17.0433V15.2108C17.0433 15.563 17.3289 15.8486 17.6812 15.8486H20.6026V18.9486Z" fill="#46C2C5"/>
<path d="M26.5988 6.2493H21.3428V4.00403C21.3759 2.97947 20.5721 2.12202 19.5475 2.08894C19.4953 2.08726 19.4431 2.08774 19.3909 2.09045H11.6091C10.5853 2.03711 9.71214 2.82375 9.65872 3.84744C9.65601 3.89958 9.65545 3.95181 9.6572 4.00403V6.23654H4.40124C2.37284 6.23654 0 7.39107 0 10.6378V24.5112C0 27.7579 2.37284 28.9125 4.40124 28.9125H26.5988C28.6272 28.9125 31 27.7579 31 24.5112V10.6505C31 7.40383 28.6335 6.2493 26.5988 6.2493ZM10.9329 4.00403C10.9329 3.81905 10.9329 3.32152 11.6154 3.32152H19.3909C20.0735 3.32152 20.0735 3.81267 20.0735 4.00403V6.23654H10.9329V4.00403ZM29.7243 24.5112C29.7243 27.3306 27.5428 27.6367 26.5988 27.6367H4.40124C3.46358 27.6367 1.27572 27.3306 1.27572 24.5112V10.6505C1.27572 7.83119 3.4572 7.52502 4.40124 7.52502H26.5988C27.5364 7.52502 29.7243 7.83119 29.7243 10.6505V24.5112Z" fill="#46C2C5"/>
</svg>
