<svg width="31" height="31" viewBox="0 0 31 31" fill="none" xmlns="http://www.w3.org/2000/svg">
<path d="M9.03559 19.9066C9.7154 19.9066 10.2665 19.3555 10.2665 18.6757C10.2665 17.9959 9.7154 17.4448 9.03559 17.4448C8.35578 17.4448 7.80469 17.9959 7.80469 18.6757C7.80469 19.3555 8.35578 19.9066 9.03559 19.9066Z" fill="#46C2C5"/>
<path d="M21.9653 19.9066C22.6451 19.9066 23.1962 19.3555 23.1962 18.6757C23.1962 17.9959 22.6451 17.4448 21.9653 17.4448C21.2855 17.4448 20.7344 17.9959 20.7344 18.6757C20.7344 19.3555 21.2855 19.9066 21.9653 19.9066Z" fill="#46C2C5"/>
<path d="M31 18.1532C31 16.3702 29.7076 14.8844 28.0105 14.5808V14.0428C28.0105 7.14442 22.3983 1.53223 15.5 1.53223C8.60167 1.53223 2.98948 7.14442 2.98948 14.0428V14.5808C1.29242 14.8845 0 16.3703 0 18.1532C0 19.9516 1.31468 21.4478 3.03329 21.7335C3.27518 24.4899 4.53628 26.5259 6.79312 27.7929C8.80015 28.9197 11.6481 29.4674 15.5 29.4674C19.3519 29.4674 22.1999 28.9196 24.207 27.7929C26.4637 26.5259 27.7248 24.4899 27.9667 21.7335C29.6853 21.4479 31 19.9516 31 18.1532ZM1.28152 18.1532C1.28152 17.0803 2.00495 16.1738 2.9894 15.8941V20.4123C2.00495 20.1327 1.28152 19.2262 1.28152 18.1532ZM26.729 20.7251C26.729 23.5392 25.6988 25.4856 23.5796 26.6754C21.7692 27.6918 19.1264 28.1859 15.5 28.1859C11.8737 28.1859 9.23082 27.6918 7.42051 26.6754C5.30119 25.4856 4.271 23.5392 4.271 20.7251V14.0428C4.271 8.97204 7.64982 4.67637 12.274 3.28679C15.7968 3.33133 17.6729 5.87435 17.6729 7.71574C17.6729 9.12606 16.5256 10.2735 15.1152 10.2735C14.0576 10.2735 13.1971 9.41304 13.1971 8.35546C13.1971 7.58006 13.828 6.94915 14.6035 6.94915C14.9573 6.94915 15.2442 6.66225 15.2442 6.30839C15.2442 5.95453 14.9573 5.66763 14.6035 5.66763C13.1214 5.66763 11.9156 6.87338 11.9156 8.35546C11.9156 10.1197 13.3509 11.555 15.1152 11.555C17.2322 11.555 18.9545 9.83274 18.9545 7.71574C18.9545 6.38576 18.2862 4.95486 17.167 3.88799C16.7192 3.46124 16.2098 3.10249 15.654 2.81575C21.7749 2.89857 26.729 7.90261 26.729 14.0428V20.7251ZM28.0105 20.4124V15.8942C28.9951 16.1739 29.7185 17.0804 29.7185 18.1533C29.7185 19.2262 28.995 20.1327 28.0105 20.4124Z" fill="#46C2C5"/>
<path d="M17.9759 20.4406C16.6095 21.8071 14.386 21.8071 13.0196 20.4406C12.7693 20.1904 12.3637 20.1904 12.1134 20.4406C11.8632 20.6908 11.8632 21.0966 12.1134 21.3468C13.0465 22.2798 14.2722 22.7464 15.4978 22.7464C16.7234 22.7464 17.949 22.2798 18.8821 21.3468C19.1324 21.0966 19.1324 20.6908 18.8821 20.4406C18.6318 20.1904 18.2262 20.1904 17.9759 20.4406Z" fill="#46C2C5"/>
</svg>
