<svg width="41" height="31" viewBox="0 0 41 31" fill="none" xmlns="http://www.w3.org/2000/svg">
<path d="M40.0205 10.4504L20.8017 0.200434C20.6128 0.0998555 20.3879 0.0998555 20.1989 0.200434L0.980156 10.4504C0.770672 10.5619 0.640625 10.7791 0.640625 11.0155C0.640625 11.2519 0.770672 11.469 0.979516 11.5805L6.40625 14.4748V22.5467H7.6875V15.1584L9.60938 16.1834V20.0752C8.50686 20.3615 7.6875 21.3558 7.6875 22.5467C7.6875 23.1322 7.8925 23.6659 8.22434 24.0983C7.87456 25.2944 7.6875 26.5276 7.6875 27.7755V29.5936C7.6875 29.8364 7.82459 30.058 8.04177 30.1669L8.74966 30.5212C9.21347 30.7525 9.73173 30.8748 10.25 30.8748C10.7683 30.8748 11.2865 30.7525 11.7503 30.5206L12.4582 30.1663C12.6754 30.058 12.8125 29.8364 12.8125 29.5936V27.7755C12.8125 26.5276 12.6254 25.2944 12.2757 24.0983C12.6075 23.6659 12.8125 23.1322 12.8125 22.5467C12.8125 21.3558 11.9931 20.3615 10.8906 20.0752V16.8669L20.1983 21.8311C20.2931 21.8811 20.3962 21.9061 20.5 21.9061C20.6038 21.9061 20.7069 21.8811 20.8017 21.8311L33.3125 15.1584V22.2302C29.7493 24.9151 25.3482 26.3905 20.8837 26.3905H20.1169C17.9176 26.3905 15.7434 26.0413 13.6536 25.3527L13.2533 26.5698C15.4711 27.3008 17.7812 27.6717 20.1163 27.6717H20.8831C25.7352 27.6717 30.5162 26.0311 34.3465 23.0522C34.5021 22.9311 34.5938 22.7447 34.5938 22.5467V14.4748L40.0205 11.5805C40.2293 11.469 40.3594 11.2519 40.3594 11.0155C40.3594 10.7791 40.2293 10.5619 40.0205 10.4504ZM11.5312 29.1977L11.177 29.3745C10.6036 29.6609 9.89573 29.6609 9.32238 29.3745L8.96875 29.1977V27.7755C8.96875 26.8126 9.08598 25.8587 9.31725 24.9273C9.60681 25.0413 9.92008 25.1092 10.25 25.1092C10.5799 25.1092 10.8932 25.0413 11.1827 24.9273C11.414 25.8587 11.5312 26.8126 11.5312 27.7755V29.1977ZM11.5312 22.5467C11.5312 23.2533 10.9566 23.828 10.25 23.828C9.54339 23.828 8.96875 23.2533 8.96875 22.5467C8.96875 21.8401 9.54339 21.2655 10.25 21.2655C10.9566 21.2655 11.5312 21.8401 11.5312 22.5467ZM20.5 20.539L11.3314 15.6491L19.2681 11.4165C19.6326 11.5651 20.0477 11.6561 20.5 11.6561C21.9369 11.6561 23.0625 10.8117 23.0625 9.73421C23.0625 8.65668 21.9369 7.81234 20.5 7.81234C19.0631 7.81234 17.9375 8.65668 17.9375 9.73421C17.9375 10.027 18.0265 10.2999 18.1765 10.5465L9.97005 14.9233L2.64258 11.0155L20.5 1.49129L38.3574 11.0155L20.5 20.539ZM19.2188 9.73421C19.2188 9.47284 19.7178 9.09359 20.5 9.09359C21.2822 9.09359 21.7812 9.47284 21.7812 9.73421C21.7812 9.99559 21.2822 10.3748 20.5 10.3748C19.7178 10.3748 19.2188 9.99559 19.2188 9.73421Z" fill="#46C2C5"/>
</svg>
