<svg width="30" height="32" viewBox="0 0 30 32" fill="none" xmlns="http://www.w3.org/2000/svg">
<path d="M0.473734 31.203L2.86477 8.92653C2.90462 8.56787 3.22342 8.28892 3.58208 8.28892H8.00549V6.934C8.00549 3.10834 11.1138 0 14.9395 0C18.7651 0 21.8735 3.10834 21.8735 6.934V8.28892H26.4164C26.7751 8.28892 27.0939 8.56787 27.1338 8.92653L29.5248 31.203C29.5646 31.4022 29.4849 31.6015 29.3654 31.7609C29.2458 31.9203 29.0466 32 28.8473 32H1.15119C0.951939 32 0.752687 31.9203 0.633137 31.7609C0.513584 31.6015 0.433882 31.4022 0.473734 31.203ZM8.7228 12.3138C8.36414 12.3138 8.08519 12.5928 8.08519 12.9514C8.08519 13.3101 8.36414 13.589 8.7228 13.589C9.08145 13.589 9.36041 13.3101 9.36041 12.9514C9.36041 12.5928 9.08145 12.3138 8.7228 12.3138ZM20.4389 6.934C20.4389 3.90535 17.9681 1.43462 14.9395 1.43462C11.9108 1.43462 9.44011 3.90535 9.44011 6.934V8.28892H20.4389V6.934ZM21.1562 12.3138C20.7975 12.3138 20.5186 12.5928 20.5186 12.9514C20.5186 13.3101 20.7975 13.589 21.1562 13.589C21.5148 13.589 21.7938 13.3101 21.7938 12.9514C21.7938 12.5928 21.5148 12.3138 21.1562 12.3138ZM28.0105 30.5255L25.7788 9.68369H21.8735V10.9988C22.6705 11.2777 23.2284 12.0349 23.2284 12.9116C23.2284 14.0274 22.3118 14.944 21.196 14.944C20.0802 14.944 19.1636 14.0274 19.1636 12.9116C19.1636 12.0349 19.7216 11.2777 20.5186 10.9988V9.68369H9.51981V10.9988C10.3168 11.2777 10.8747 12.0349 10.8747 12.9116C10.8747 14.0274 9.95817 14.944 8.84235 14.944C7.72654 14.944 6.80997 14.0274 6.80997 12.9116C6.80997 12.0349 7.36788 11.2777 8.16489 10.9988V9.68369H4.10013L1.8685 30.5255H28.0105Z" fill="#46C2C5"/>
</svg>
