<svg width="28" height="28" viewBox="0 0 28 28" fill="none" xmlns="http://www.w3.org/2000/svg">
<path d="M27.9258 10.7729C27.7138 10.1203 27.0822 9.67191 26.1931 9.54266L18.9463 8.4895L15.7054 1.92313C15.3079 1.11734 14.6862 0.655273 14 0.655273C13.3139 0.655273 12.6922 1.11734 12.2945 1.92313L9.05402 8.4895L1.80683 9.54266C0.917728 9.67191 0.286043 10.1203 0.0741278 10.7729C-0.137787 11.4255 0.109589 12.1596 0.753024 12.7865L5.99706 17.8979L4.7589 25.1156C4.6006 26.0387 4.87041 26.592 5.12462 26.8934C5.42305 27.2472 5.85778 27.442 6.34911 27.442C6.71911 27.442 7.11239 27.3339 7.51827 27.1205L14 23.7128L20.482 27.1205C20.8879 27.3339 21.2812 27.442 21.651 27.4422H21.6512C22.1425 27.4422 22.5775 27.2472 22.8757 26.8934C23.1299 26.592 23.3997 26.0387 23.2412 25.1156L22.0035 17.8979L27.2471 12.7868C27.8905 12.1596 28.1379 11.4255 27.9258 10.7729ZM26.102 11.6118L20.5495 17.0242C20.3562 17.2126 20.268 17.4843 20.3137 17.7503L21.6243 25.3931C21.6625 25.6155 21.6461 25.7418 21.6309 25.8007C21.5724 25.7969 21.4468 25.7742 21.2455 25.6685L14.3818 22.06C14.2622 21.9971 14.1312 21.9657 14 21.9657C13.8689 21.9657 13.7377 21.9971 13.6183 22.06L6.755 25.6683C6.55376 25.774 6.42794 25.7969 6.36941 25.8007C6.35445 25.7418 6.33779 25.6155 6.37603 25.3931L7.68704 17.7505C7.73254 17.4843 7.64431 17.2126 7.45098 17.0244L1.89826 11.6118C1.73676 11.4544 1.67588 11.3427 1.65323 11.286C1.70472 11.2536 1.81965 11.1989 2.04288 11.1664L9.71689 10.0513C9.98413 10.0124 10.2151 9.84451 10.3345 9.60248L13.7659 2.64924C13.8659 2.44694 13.9533 2.35465 14.0003 2.31556C14.047 2.35465 14.1346 2.44694 14.2344 2.64924L17.666 9.60248C17.7857 9.84451 18.0166 10.0124 18.2838 10.0513L25.9572 11.1664C26.1807 11.1989 26.2954 11.2536 26.3469 11.286C26.3242 11.3424 26.2635 11.4544 26.102 11.6118Z" fill="#46C2C5"/>
</svg>
