<svg width="44" height="44" viewBox="0 0 44 44" fill="none" xmlns="http://www.w3.org/2000/svg">
<path d="M41.3625 34.5745H36.5987C36.6016 34.5295 36.6248 34.4918 36.6248 34.4468V29.8368C36.6248 28.6344 35.6503 27.6599 34.4479 27.6599H29.6841C29.687 27.6149 29.7102 27.5772 29.7102 27.5315V22.9215C29.7102 21.7191 28.7357 20.7446 27.5333 20.7446H16.0079C14.8055 20.7446 13.8309 21.7191 13.8309 22.9215V27.5315C13.8309 27.5773 13.8542 27.6149 13.8571 27.6599H9.09326C7.89085 27.6599 6.91634 28.6344 6.91634 29.8368V34.4468C6.91634 34.4925 6.93956 34.5302 6.94245 34.5745H2.17789C0.975487 34.5745 0.000976562 35.549 0.000976562 36.7514V41.3614C0.000976562 42.5638 0.975487 43.5383 2.17789 43.5383H41.3624C42.5648 43.5383 43.5393 42.5638 43.5393 41.3614V36.7514C43.5394 35.5491 42.5648 34.5745 41.3625 34.5745ZM34.4478 29.8368V34.4468H22.9225V29.8368H34.4478ZM16.0079 22.9215H27.5324V27.5315H16.0079V22.9215ZM9.09326 29.8368H20.6178V34.4468H9.09326V29.8368ZM13.7025 41.3615H2.17789V36.7515H13.7025V41.3615H13.7025ZM27.5325 41.3615H16.0079V36.7515H27.5324V41.3615H27.5325ZM41.3625 41.3615H29.8378V36.7515H41.3624V41.3615H41.3625Z" fill="black"/>
<path d="M30.6562 0.637718C30.0343 0.0165316 29.1003 -0.170632 28.2877 0.163899L15.2029 5.55177C14.933 5.66283 14.6928 5.82533 14.4925 6.02559C14.1929 6.32525 13.9824 6.71055 13.8968 7.13803C13.7538 7.85207 13.9773 8.58933 14.4918 9.10448L17.5707 12.1834L16.4161 13.3379L11.5674 12.6456C11.2285 12.597 10.8853 12.7109 10.6437 12.9533L9.10459 14.4923C8.25415 13.6419 6.87614 13.6419 6.0257 14.4923L0.637832 19.8802C-0.212611 20.7307 -0.212611 22.1087 0.637832 22.9591L2.17766 24.4967C3.0281 25.3472 4.40611 25.3472 5.25655 24.4967L10.6444 19.1089C11.4949 18.2584 11.4949 16.8804 10.6444 16.03L11.799 14.8754L16.6477 15.5677C16.9866 15.6164 17.3298 15.5024 17.5714 15.2601L19.1105 13.721L22.1894 16.7999C22.7039 17.3143 23.4419 17.5378 24.1558 17.3949C24.5832 17.3092 24.9685 17.0988 25.2683 16.7999C25.4685 16.5996 25.6311 16.3594 25.7421 16.0895L31.13 3.00546C31.4645 2.19277 31.278 1.2589 30.6562 0.637718ZM3.71681 22.9577L2.17775 21.4186L7.56562 16.0307L9.10468 17.5698L3.71681 22.9577ZM23.7277 15.2608L20.6488 12.1819L22.9578 9.87295C23.383 9.44769 23.383 8.75906 22.9578 8.33389C22.5325 7.90871 21.8439 7.90871 21.4187 8.33389L19.1097 10.6429L16.0316 7.56474L29.1156 2.17687L23.7277 15.2608Z" fill="black"/>
</svg>
