<svg width="44" height="44" viewBox="0 0 44 44" fill="none" xmlns="http://www.w3.org/2000/svg">
<path d="M42.624 17.82L27.3855 6.93541C27.0068 6.66474 26.5634 6.52979 26.12 6.52979C25.6767 6.52979 25.2333 6.66474 24.8545 6.93541L15.3509 13.7237C15.9799 14.1148 16.5017 14.6606 16.8646 15.318L26.12 8.7067L41.3585 19.5913H37.0046V39.1835H15.4227L15.25 41.3605H37.0046C38.207 41.3605 39.1815 40.3859 39.1815 39.1835V21.7682H41.3585C42.3047 21.7682 43.1428 21.1572 43.4309 20.256C43.7204 19.3547 43.3939 18.37 42.624 17.82Z" fill="#46C2C5"/>
<path d="M17.3794 28.9981L15.2025 17.0251C15.0145 15.9903 14.1132 15.2378 13.0611 15.2378H4.35342C3.30127 15.2378 2.39997 15.9903 2.21204 17.0258L0.0351261 28.9988C-0.0802675 29.6338 0.0917599 30.2875 0.505374 30.7831C0.918988 31.2787 1.53142 31.5646 2.1765 31.5646H3.56751L4.36064 41.5334C4.45061 42.6647 5.39468 43.5377 6.53033 43.5377H10.8842C12.0198 43.5377 12.9646 42.6647 13.0545 41.5335L13.847 31.5647H15.238C15.8838 31.5647 16.4955 31.278 16.9091 30.7824C17.3227 30.2868 17.4948 29.6338 17.3794 28.9981ZM11.8362 29.3878L10.8842 41.3608H6.53033L5.57827 29.3878H2.1765L4.35342 17.4147H7.61879V24.0369C7.61879 24.6384 8.10571 25.1253 8.70725 25.1253C9.30879 25.1253 9.79571 24.6384 9.79571 24.0369V17.4147H13.0611L15.238 29.3878H11.8362Z" fill="#46C2C5"/>
<path d="M8.70946 0C5.10888 0 2.17871 2.93016 2.17871 6.53075C2.17871 10.1313 5.10888 13.0615 8.70946 13.0615C12.3108 13.0615 15.2402 10.1321 15.2402 6.53075C15.2402 2.9294 12.3108 0 8.70946 0ZM8.70946 10.8846C6.30473 10.8846 4.35563 8.93548 4.35563 6.53075C4.35563 4.12602 6.30473 2.17692 8.70946 2.17692C11.1142 2.17692 13.0633 4.12602 13.0633 6.53075C13.0633 8.93548 11.1142 10.8846 8.70946 10.8846Z" fill="#46C2C5"/>
</svg>
