<svg width="44" height="44" viewBox="0 0 44 44" fill="none" xmlns="http://www.w3.org/2000/svg">
<path d="M42.4499 41.3614H39.1845V23.9461H41.3614C42.2416 23.9461 43.0354 23.4156 43.3729 22.6022C43.7095 21.7887 43.5238 20.8527 42.9012 20.2293L23.3089 0.637088C22.8837 0.21259 22.3265 0 21.7692 0C21.2118 0 20.6546 0.21259 20.2301 0.637854L14.15 6.71723V4.35383C14.15 3.15143 13.1754 2.17692 11.973 2.17692H9.79613C8.59372 2.17692 7.61921 3.15143 7.61921 4.35383V13.248L0.637854 20.2293C0.0152214 20.852 -0.171262 21.788 0.16616 22.6022C0.502817 23.4156 1.29671 23.9461 2.17692 23.9461H4.35383V41.3614H1.08846C0.486915 41.3614 0 41.8483 0 42.4499C0 43.0514 0.486915 43.5383 1.08846 43.5383H42.4499C43.0514 43.5383 43.5383 43.0514 43.5383 42.4499C43.5383 41.8483 43.0514 41.3614 42.4499 41.3614ZM9.79613 4.35383H11.973V8.89415L9.79613 11.0711V4.35383ZM37.0076 41.3614H6.53075V21.7692H2.17692L21.7692 2.17692L41.3614 21.7692H37.0076V41.3614Z" fill="black"/>
<path d="M29.7126 18.8227L12.2979 36.2378L13.8371 37.7771L31.2519 20.362L29.7126 18.8227Z" fill="black"/>
<path d="M16.3275 18.5034C13.9271 18.5034 11.9736 20.4561 11.9736 22.8573C11.9736 25.2584 13.9278 27.2111 16.3275 27.2111C18.7279 27.2111 20.6813 25.2584 20.6813 22.8573C20.6813 20.4561 18.7279 18.5034 16.3275 18.5034ZM16.3275 25.0342C15.1265 25.0342 14.1505 24.0574 14.1505 22.8573C14.1505 21.6571 15.1265 20.6803 16.3275 20.6803C17.5284 20.6803 18.5044 21.6571 18.5044 22.8573C18.5044 24.0574 17.5284 25.0342 16.3275 25.0342Z" fill="black"/>
<path d="M27.2152 29.3882C24.8148 29.3882 22.8613 31.3409 22.8613 33.742C22.8613 36.1432 24.8148 38.0959 27.2152 38.0959C29.6156 38.0959 31.569 36.1432 31.569 33.742C31.569 31.3409 29.6156 29.3882 27.2152 29.3882ZM27.2152 35.9189C26.0142 35.9189 25.0382 34.9422 25.0382 33.742C25.0382 32.5418 26.0142 31.5651 27.2152 31.5651C28.4161 31.5651 29.3921 32.5418 29.3921 33.742C29.3921 34.9422 28.4161 35.9189 27.2152 35.9189Z" fill="black"/>
</svg>
