<svg width="44" height="44" viewBox="0 0 44 44" fill="none" xmlns="http://www.w3.org/2000/svg">
<path d="M9.79622 29.3882C7.39583 29.3882 5.44238 31.3416 5.44238 33.742C5.44238 36.1424 7.39583 38.0959 9.79622 38.0959C12.1966 38.0959 14.1501 36.1424 14.1501 33.742C14.1501 31.3416 12.1966 29.3882 9.79622 29.3882ZM9.79622 35.9189C8.59381 35.9189 7.6193 34.9444 7.6193 33.742C7.6193 32.5396 8.59381 31.5651 9.79622 31.5651C10.9986 31.5651 11.9731 32.5396 11.9731 33.742C11.9731 34.9444 10.9986 35.9189 9.79622 35.9189Z" fill="black"/>
<path d="M41.3614 0H37.0076C36.4299 0 35.8764 0.229342 35.4685 0.637854L17.7912 18.3151C16.3225 17.7419 14.7304 17.4153 13.0615 17.4153C5.85956 17.4153 0 23.2749 0 30.4768C0 37.6788 5.85956 43.5383 13.0615 43.5383C20.2634 43.5383 26.123 37.6788 26.123 30.4768C26.123 28.8078 25.7965 27.2158 25.2232 25.7471L28.6599 22.3105C29.1127 21.8577 29.3434 21.2286 29.2897 20.5907L29.0996 18.3043L29.5524 17.8326L30.7076 18.3275C30.9841 18.4458 31.2758 18.5039 31.5646 18.5039C32.1306 18.5039 32.6879 18.2833 33.1044 17.866L34.42 16.5504C34.8365 16.1339 35.0666 15.5665 35.0571 14.9773L35.0462 14.2858H35.7827C36.3647 14.2858 36.922 14.0528 37.3306 13.6392C37.7398 13.2256 37.9662 12.6654 37.959 12.0835L37.9386 10.3398H39.7274C40.305 10.3398 40.8586 10.1104 41.2664 9.70191L42.8991 8.06922C43.309 7.66198 43.5383 7.1084 43.5383 6.53075V2.17692C43.5383 0.97451 42.5638 0 41.3614 0ZM13.0615 41.3614C7.05032 41.3614 2.17692 36.488 2.17692 30.4768C2.17692 24.4657 7.05032 19.5923 13.0615 19.5923C19.0727 19.5923 23.9461 24.4657 23.9461 30.4768C23.9461 36.488 19.0727 41.3614 13.0615 41.3614ZM41.3614 6.53075L39.7287 8.16344H35.7377L35.7827 12.1094H32.8352L32.881 15.012L31.5653 16.3269L29.0255 15.2384L26.8486 17.5061L27.1207 20.7714L24.2008 23.6914C23.1152 21.9165 21.6218 20.4231 19.8469 19.3376L37.0076 2.17692H41.3614V6.53075Z" fill="black"/>
</svg>
