<svg width="106" height="103" viewBox="0 0 106 103" fill="none" xmlns="http://www.w3.org/2000/svg">
<path fill-rule="evenodd" clip-rule="evenodd" d="M0.489258 102.768H1.84399V97.6311H5.40018V96.4175H0.489258V102.768Z" fill="#46C2C5"/>
<path fill-rule="evenodd" clip-rule="evenodd" d="M9.80284 96.4175H6.69824V102.768H8.05298V101.103H9.80284C10.5084 101.103 11.1576 100.82 11.6092 100.369C12.0043 99.9454 12.2301 99.381 12.2301 98.7883C12.2301 98.1673 11.9761 97.5747 11.5809 97.1795C11.1576 96.6997 10.5084 96.4175 9.80284 96.4175ZM10.5931 99.5785C10.4238 99.7761 10.1698 99.9172 9.85929 99.9172H8.0812V97.6593H9.77462C10.1415 97.6593 10.4238 97.8004 10.6495 98.0262C10.7907 98.2238 10.9036 98.506 10.9036 98.7883C10.9036 99.0987 10.7907 99.3527 10.5931 99.5785Z" fill="#46C2C5"/>
<path fill-rule="evenodd" clip-rule="evenodd" d="M16.4635 99.9738H16.4071L14.5161 96.4458H12.9355L15.6732 101.272L15.6168 101.357C15.5604 101.47 15.4757 101.554 15.3628 101.611C15.2499 101.667 15.137 101.695 14.9959 101.695H14.5161L14.4314 102.768C14.7419 102.824 14.9394 102.853 15.2499 102.853C15.6168 102.853 15.9273 102.768 16.1813 102.599C16.4917 102.373 16.7175 102.091 16.9433 101.667L19.6528 96.474H18.1569L16.4635 99.9738Z" fill="#46C2C5"/>
<path fill-rule="evenodd" clip-rule="evenodd" d="M20.8955 102.768H22.2502V97.6311H25.2702V102.768H26.6249V96.4175H20.8955V102.768Z" fill="#46C2C5"/>
<path fill-rule="evenodd" clip-rule="evenodd" d="M28.1484 102.768H29.5032V97.6311H32.5513V102.768H33.9061V96.4175H28.1484V102.768Z" fill="#46C2C5"/>
<path fill-rule="evenodd" clip-rule="evenodd" d="M37.9415 96.4175L35.1191 102.768H36.5585L37.0666 101.639H40.1712L40.6792 102.768H42.1468L39.3245 96.4175H37.9415ZM37.5464 100.425L38.5342 97.9416H38.6189L39.6067 100.425H37.5464Z" fill="#46C2C5"/>
<path fill-rule="evenodd" clip-rule="evenodd" d="M51.2922 99.0425L51.8567 97.9418C51.9131 97.8289 51.9978 97.716 52.1107 97.6595C52.2236 97.5748 52.3647 97.5466 52.5341 97.5466H52.9292L53.0985 96.4177C52.8445 96.3612 52.5905 96.333 52.3083 96.333C51.9414 96.333 51.6027 96.4177 51.3204 96.587C51.0664 96.7281 50.8689 96.9539 50.7277 97.2362L50.1351 98.4498C50.0786 98.5627 49.9939 98.6473 49.881 98.7038C49.7681 98.7602 49.6553 98.7885 49.5141 98.7885H48.7239V96.4177H47.3691V102.768H48.7239V100.002H49.5988C49.7117 100.002 49.8528 100.002 49.9375 99.9739L51.6027 102.768H53.1832L51.0664 99.3812C51.1793 99.2683 51.2358 99.1836 51.2922 99.0425Z" fill="#46C2C5"/>
<path fill-rule="evenodd" clip-rule="evenodd" d="M56.9367 96.3047C55.9771 96.3047 55.1869 96.6434 54.5942 97.1796C53.945 97.8006 53.5781 98.6473 53.5781 99.5786C53.5781 100.482 53.945 101.329 54.5377 101.921C55.1304 102.514 55.9771 102.881 56.965 102.881C57.9246 102.881 58.7431 102.542 59.3358 101.978C59.9567 101.357 60.3236 100.51 60.3236 99.6069C60.3236 98.7319 59.9849 97.9134 59.3922 97.3207C58.7713 96.6998 57.8963 96.3047 56.9367 96.3047ZM58.3197 101.103C57.9528 101.47 57.473 101.667 56.9367 101.667C56.3723 101.667 55.8642 101.47 55.4973 101.075C55.1304 100.708 54.9329 100.2 54.9329 99.5786C54.9329 98.9577 55.1586 98.4497 55.4973 98.0828C55.8642 97.6877 56.3723 97.4901 56.965 97.4901C57.5012 97.4901 58.0092 97.6877 58.3479 98.0263C58.7148 98.3933 58.9406 98.9295 58.9406 99.5504C58.9124 100.2 58.7148 100.764 58.3197 101.103Z" fill="#46C2C5"/>
<path fill-rule="evenodd" clip-rule="evenodd" d="M65.0087 99.4656L62.9202 96.4175H61.5654V102.768H62.8637V98.5907H62.9202L64.7265 101.244H65.2627L67.0408 98.5907H67.0972V102.768H68.452V96.4175H67.069L65.0087 99.4656Z" fill="#46C2C5"/>
<path fill-rule="evenodd" clip-rule="evenodd" d="M69.9766 102.768H71.3313V97.6311H74.3795V102.768H75.7342V96.4175H69.9766V102.768Z" fill="#46C2C5"/>
<path fill-rule="evenodd" clip-rule="evenodd" d="M79.6847 96.4175L76.8623 102.768H78.3017L78.8097 101.639H81.9144L82.4224 102.768H83.89L81.0676 96.4175H79.6847ZM79.3178 100.425L80.3056 97.9416H80.3903L81.3781 100.425H79.3178Z" fill="#46C2C5"/>
<path fill-rule="evenodd" clip-rule="evenodd" d="M89.2527 98.7883H86.261V96.4175H84.9062V102.768H86.261V100.002H89.2527V102.768H90.6075V96.4175H89.2527V98.7883Z" fill="#46C2C5"/>
<path fill-rule="evenodd" clip-rule="evenodd" d="M93.4301 100.623V96.4175H92.1318V102.768H93.3454L96.6476 98.5625V102.768H97.9459V96.4175H96.7323L93.4301 100.623Z" fill="#46C2C5"/>
<path fill-rule="evenodd" clip-rule="evenodd" d="M102.236 94.8089C101.954 94.8089 101.756 94.7242 101.615 94.5831C101.502 94.4702 101.417 94.3573 101.361 94.188L100.401 94.6396C100.542 95.0065 100.797 95.2887 101.051 95.5145C101.389 95.7685 101.784 95.8814 102.208 95.8814C102.659 95.8814 103.083 95.7403 103.421 95.5145C103.675 95.3169 103.929 95.0347 104.042 94.6678L103.083 94.2162C102.998 94.3856 102.942 94.4985 102.829 94.6113C102.716 94.7242 102.518 94.8089 102.236 94.8089Z" fill="#46C2C5"/>
<path fill-rule="evenodd" clip-rule="evenodd" d="M103.985 96.4175L100.711 100.623V96.4175H99.3848V102.768H100.598L103.901 98.5625V102.768H105.199V96.4175H103.985Z" fill="#46C2C5"/>
<path fill-rule="evenodd" clip-rule="evenodd" d="M11.7223 85.5796H7.96853V74.9393H27.838V85.5796H24.2536V88.5148H35.2608V85.5796H31.7329L31.7611 61.025H35.2608L35.2891 58.2309L24.2536 58.2026V61.025H27.838V72.004L7.96853 72.0322V61.025H11.6941L11.7223 58.2026H0.489258V60.9968H4.24301L4.21478 85.5796H0.489258V88.4866L11.7223 88.5148V85.5796Z" fill="#46C2C5"/>
<path fill-rule="evenodd" clip-rule="evenodd" d="M57.2469 72.3427C59.3072 70.988 61.2829 68.8147 61.2829 65.4843C61.2829 61.0532 58.0654 58.2591 50.953 58.2591L38.3652 58.2026L38.3935 60.9968H41.865V85.5796H38.3935V88.4866L51.0659 88.5431C59.6177 88.5431 63.0327 84.7611 63.0327 79.3704C63.0045 75.7013 60.8595 73.3305 57.2469 72.3427ZM45.3365 61.1097H50.7837C55.1019 61.1097 57.6702 62.3233 57.6702 65.8512C57.6702 70.0566 54.4245 71.6371 52.5618 71.6371H45.3647V61.1097H45.3365ZM50.8683 85.6078H45.3365V74.2337H52.7311C56.7389 74.2337 59.2508 75.6731 59.2508 79.3986C59.2508 83.3781 56.8518 85.6078 50.8683 85.6078Z" fill="#46C2C5"/>
<path fill-rule="evenodd" clip-rule="evenodd" d="M105.2 60.9968V58.2026L96.3656 58.2591L84.9633 83.9991L73.6456 58.2026H64.5293L64.5575 61.025H68.0573L68.0855 85.5796H64.5575V88.4866L75.085 88.5148L75.1132 85.5796H71.9804V63.5651H72.0086L83.1005 88.3455H86.7413L97.6921 63.5369H97.7486V85.5796H94.8415V88.5148H105.2V85.5796H101.672V60.9968H105.2Z" fill="#46C2C5"/>
<path d="M105.171 46.2358H0.545898V50.1025H105.171V46.2358Z" fill="#46C2C5"/>
<path fill-rule="evenodd" clip-rule="evenodd" d="M7.99682 38.1921V22.4715L17.6493 15.8671L27.8381 22.4715V38.1638H31.7329V22.4715L60.2953 4.91636L65.4884 8.67011L44.6876 22.4715H50.7275L75.1127 6.58156L97.7481 22.4997V38.1638H101.671V21.5965L94.9822 16.7421V6.638H90.9744V13.835L75.0845 2.31978L68.5084 6.66623L60.2671 0.739258L51.3202 6.55334H25.9471L4.21484 21.5683V38.1921H7.99682Z" fill="#46C2C5"/>
<path fill-rule="evenodd" clip-rule="evenodd" d="M14.29 29.1607H21.0073V22.4717H14.29V29.1607Z" fill="#46C2C5"/>
<path d="M74.774 22.4717H68.085V29.1607H74.774V22.4717Z" fill="#46C2C5"/>
<path d="M82.648 22.4717H75.959V29.1607H82.648V22.4717Z" fill="#46C2C5"/>
<path d="M74.774 30.4307H68.085V37.1197H74.774V30.4307Z" fill="#46C2C5"/>
<path d="M82.648 30.4307H75.959V37.1197H82.648V30.4307Z" fill="#46C2C5"/>
</svg>
