<svg width="123" height="120" viewBox="0 0 123 120" fill="none" xmlns="http://www.w3.org/2000/svg">
<path fill-rule="evenodd" clip-rule="evenodd" d="M0.128906 119.51H1.71225V113.507H5.86855V112.088H0.128906V119.51Z" fill="white"/>
<path fill-rule="evenodd" clip-rule="evenodd" d="M11.0133 112.088H7.38477V119.51H8.96811V117.564H11.0133C11.8379 117.564 12.5966 117.234 13.1244 116.706C13.5862 116.212 13.8501 115.552 13.8501 114.859C13.8501 114.133 13.5532 113.441 13.0914 112.979C12.5966 112.418 11.8379 112.088 11.0133 112.088ZM11.9369 115.783C11.739 116.014 11.4421 116.179 11.0792 116.179H9.0011V113.54H10.9803C11.4091 113.54 11.739 113.705 12.0029 113.968C12.1678 114.199 12.2997 114.529 12.2997 114.859C12.2997 115.222 12.1678 115.519 11.9369 115.783Z" fill="white"/>
<path fill-rule="evenodd" clip-rule="evenodd" d="M18.7991 116.245H18.7331L16.523 112.121H14.6758L17.8755 117.762L17.8095 117.861C17.7435 117.993 17.6446 118.092 17.5126 118.158C17.3807 118.224 17.2487 118.257 17.0838 118.257H16.523L16.4241 119.51C16.7869 119.576 17.0178 119.609 17.3807 119.609C17.8095 119.609 18.1723 119.51 18.4692 119.312C18.8321 119.048 19.096 118.719 19.3599 118.224L22.5266 112.154H20.7783L18.7991 116.245Z" fill="white"/>
<path fill-rule="evenodd" clip-rule="evenodd" d="M23.9785 119.51H25.5619V113.507H29.0914V119.51H30.6748V112.088H23.9785V119.51Z" fill="white"/>
<path fill-rule="evenodd" clip-rule="evenodd" d="M32.4551 119.51H34.0384V113.507H37.601V119.51H39.1843V112.088H32.4551V119.51Z" fill="white"/>
<path fill-rule="evenodd" clip-rule="evenodd" d="M43.9022 112.088L40.6035 119.51H42.2858L42.8796 118.191H46.5081L47.1018 119.51H48.8171L45.5185 112.088H43.9022ZM43.4403 116.772L44.5949 113.869H44.6938L45.8484 116.772H43.4403Z" fill="white"/>
<path fill-rule="evenodd" clip-rule="evenodd" d="M59.505 115.156L60.1648 113.869C60.2307 113.738 60.3297 113.606 60.4616 113.54C60.5936 113.441 60.7585 113.408 60.9564 113.408H61.4182L61.6162 112.088C61.3193 112.022 61.0224 111.989 60.6925 111.989C60.2637 111.989 59.8679 112.088 59.538 112.286C59.2411 112.451 59.0102 112.715 58.8453 113.045L58.1526 114.463C58.0866 114.595 57.9877 114.694 57.8557 114.76C57.7238 114.826 57.5918 114.859 57.4269 114.859H56.5033V112.088H54.9199V119.51H56.5033V116.277H57.5258C57.6578 116.277 57.8227 116.277 57.9217 116.244L59.8679 119.51H61.7151L59.2411 115.552C59.3731 115.42 59.4391 115.321 59.505 115.156Z" fill="white"/>
<path fill-rule="evenodd" clip-rule="evenodd" d="M66.1012 111.956C64.9796 111.956 64.056 112.352 63.3633 112.979C62.6046 113.705 62.1758 114.694 62.1758 115.783C62.1758 116.838 62.6046 117.828 63.2973 118.521C63.99 119.213 64.9796 119.642 66.1341 119.642C67.2557 119.642 68.2123 119.246 68.905 118.587C69.6307 117.861 70.0595 116.871 70.0595 115.816C70.0595 114.793 69.6637 113.837 68.971 113.144C68.2453 112.418 67.2227 111.956 66.1012 111.956ZM67.7175 117.564C67.2887 117.993 66.7279 118.224 66.1012 118.224C65.4414 118.224 64.8477 117.993 64.4189 117.531C63.99 117.102 63.7591 116.508 63.7591 115.783C63.7591 115.057 64.023 114.463 64.4189 114.034C64.8477 113.573 65.4414 113.342 66.1341 113.342C66.7609 113.342 67.3546 113.573 67.7505 113.968C68.1793 114.397 68.4432 115.024 68.4432 115.75C68.4102 116.508 68.1793 117.168 67.7175 117.564Z" fill="white"/>
<path fill-rule="evenodd" clip-rule="evenodd" d="M75.536 115.651L73.0951 112.088H71.5117V119.51H73.0291V114.628H73.0951L75.2062 117.729H75.8329L77.9111 114.628H77.977V119.51H79.5604V112.088H77.944L75.536 115.651Z" fill="white"/>
<path fill-rule="evenodd" clip-rule="evenodd" d="M81.3418 119.51H82.9251V113.507H86.4877V119.51H88.071V112.088H81.3418V119.51Z" fill="white"/>
<path fill-rule="evenodd" clip-rule="evenodd" d="M92.6893 112.088L89.3906 119.51H91.0729L91.6667 118.191H95.2952L95.889 119.51H97.6043L94.3056 112.088H92.6893ZM92.2605 116.772L93.415 113.869H93.5139L94.6685 116.772H92.2605Z" fill="white"/>
<path fill-rule="evenodd" clip-rule="evenodd" d="M103.871 114.859H100.374V112.088H98.791V119.51H100.374V116.277H103.871V119.51H105.454V112.088H103.871V114.859Z" fill="white"/>
<path fill-rule="evenodd" clip-rule="evenodd" d="M108.754 117.003V112.088H107.236V119.51H108.655L112.514 114.595V119.51H114.031V112.088H112.613L108.754 117.003Z" fill="white"/>
<path fill-rule="evenodd" clip-rule="evenodd" d="M119.045 110.208C118.715 110.208 118.484 110.109 118.319 109.944C118.187 109.812 118.088 109.68 118.022 109.482L116.9 110.01C117.065 110.439 117.362 110.769 117.659 111.033C118.055 111.33 118.517 111.462 119.012 111.462C119.539 111.462 120.034 111.297 120.43 111.033C120.727 110.802 121.024 110.472 121.156 110.043L120.034 109.515C119.935 109.713 119.869 109.845 119.737 109.977C119.605 110.109 119.374 110.208 119.045 110.208Z" fill="white"/>
<path fill-rule="evenodd" clip-rule="evenodd" d="M121.09 112.088L117.263 117.003V112.088H115.713V119.51H117.131L120.991 114.595V119.51H122.508V112.088H121.09Z" fill="white"/>
<path fill-rule="evenodd" clip-rule="evenodd" d="M13.2575 99.4214H8.87031V86.9855H32.0927V99.4214H27.9035V102.852H40.7682V99.4214H36.6449L36.6779 70.7232H40.7682L40.8012 67.4576L27.9035 67.4246V70.7232H32.0927V83.555L8.87031 83.5879V70.7232H13.2245L13.2575 67.4246H0.128906V70.6903H4.5161L4.48311 99.4214H0.128906V102.819L13.2575 102.852V99.4214Z" fill="white"/>
<path fill-rule="evenodd" clip-rule="evenodd" d="M66.4644 83.9508C68.8724 82.3674 71.1815 79.8275 71.1815 75.9351C71.1815 70.7562 67.421 67.4906 59.1084 67.4906L44.3965 67.4246L44.4295 70.6903H48.4868V99.4214H44.4295V102.819L59.2404 102.885C69.2353 102.885 73.2266 98.4648 73.2266 92.1644C73.1937 87.8762 70.6867 85.1053 66.4644 83.9508ZM52.5441 70.8222H58.9105C63.9574 70.8222 66.9592 72.2406 66.9592 76.3639C66.9592 81.2789 63.1658 83.1261 60.9887 83.1261H52.5771V70.8222H52.5441ZM59.0095 99.4544H52.5441V86.1609H61.1866C65.8707 86.1609 68.8065 87.8432 68.8065 92.1974C68.8065 96.8485 66.0026 99.4544 59.0095 99.4544Z" fill="white"/>
<path fill-rule="evenodd" clip-rule="evenodd" d="M122.508 70.6903V67.4246L112.183 67.4906L98.8568 97.5742L85.6292 67.4246H74.9746L75.0076 70.7232H79.0979L79.1309 99.4214H75.0076V102.819L87.3115 102.852L87.3445 99.4214H83.683V73.692H83.716L96.6797 102.654H100.935L113.734 73.659H113.8V99.4214H110.402V102.852H122.508V99.4214H118.385V70.6903H122.508Z" fill="white"/>
<path d="M122.476 53.4383H0.195312V57.9575H122.476V53.4383Z" fill="white"/>
<path fill-rule="evenodd" clip-rule="evenodd" d="M8.9026 44.0372V25.6638L20.184 17.945L32.0921 25.6638V44.0042H36.6442V25.6638L70.0264 5.14624L76.0959 9.53344L51.7849 25.6638H58.844L87.3443 7.09244L113.799 25.6968V44.0042H118.385V24.6412L110.567 18.9675V7.15841H105.883V15.5699L87.3113 2.11149L79.6255 7.1914L69.9934 0.264252L59.5368 7.05945H29.882L4.48242 24.6082V44.0372H8.9026Z" fill="white"/>
<path fill-rule="evenodd" clip-rule="evenodd" d="M16.2598 33.4816H24.1105V25.6638H16.2598V33.4816Z" fill="white"/>
<path d="M86.9486 25.6638H79.1309V33.4816H86.9486V25.6638Z" fill="white"/>
<path d="M96.1518 25.6638H88.334V33.4816H96.1518V25.6638Z" fill="white"/>
<path d="M86.9486 34.9659H79.1309V42.7837H86.9486V34.9659Z" fill="white"/>
<path d="M96.1518 34.9659H88.334V42.7837H96.1518V34.9659Z" fill="white"/>
</svg>
