<svg width="1440" height="390" viewBox="0 0 1440 390" fill="none" xmlns="http://www.w3.org/2000/svg">
<mask id="mask0" mask-type="alpha" maskUnits="userSpaceOnUse" x="0" y="0" width="1440" height="390">
<rect width="1440" height="390" fill="#EFF6F7"/>
<rect width="1440" height="390" fill="url(#paint0_linear)"/>
</mask>
<g mask="url(#mask0)">
<path d="M156.295 -156.744H127V-176.143H215.646L215.439 -156.528H186.362H185.362V-155.528V-71.2289V-70.2275L186.363 -70.2289L346.72 -70.445L347.718 -70.4464V-71.445V-155.528V-156.528H346.718H318.79V-176.14L405.841 -175.929L405.635 -156.528H378.38H377.381L377.38 -155.529L377.152 32.5221L377.151 33.5233H378.152H405.624V54.0029H318.79V33.5233H346.718H347.718V32.5233V-48.9654V-49.9654H346.718H186.362H185.362V-48.9654V32.5233V33.5233H186.362H215.656V54.0005L127 53.7892V33.5233H156.067H157.066L157.067 32.5245L157.295 -155.742L157.296 -156.744H156.295Z" stroke="white" stroke-width="2"/>
<path d="M582.469 -69.7999L580.499 -68.5686L582.748 -67.9841C597.151 -64.2405 608.543 -57.8986 616.358 -49.0956C624.16 -40.3061 628.46 -28.9942 628.572 -15.1763C628.571 5.20706 621.79 22.436 606.598 34.5979C591.368 46.7903 567.546 54.0029 533.246 54.0029L432.24 53.5752V33.3283H459.184H460.184V32.3283V-155.764V-156.764H459.184H432.229L432.023 -176.138L532.333 -175.711H532.337C560.864 -175.711 581.413 -170.38 594.806 -160.965C608.143 -151.589 614.487 -138.089 614.487 -121.428C614.487 -96.4348 598.909 -80.0753 582.469 -69.7999ZM486.354 -74.3507V-73.3507H487.354H545.287C553.013 -73.3507 563.522 -76.453 572.112 -83.6529C580.737 -90.8823 587.407 -102.227 587.407 -118.62C587.407 -132.426 582.089 -141.844 572.239 -147.741C562.487 -153.579 548.403 -155.9 530.974 -155.9H488.354H487.354H487.127V-154.9H486.354V-74.3507ZM486.127 32.5442V33.5442H487.127H531.656C555.822 33.5442 572.949 29.2704 584.051 21.0104C595.214 12.7047 600.129 0.490051 600.129 -14.9646C600.129 -29.4865 594.959 -39.7002 585.558 -46.2346C576.225 -52.7219 562.862 -55.4834 546.65 -55.4834H487.127H486.127V-54.4834V32.5442Z" stroke="white" stroke-width="2"/>
<path d="M702.434 33.5233H726.663L726.456 54.0004L643.632 53.7893V33.5233H671.055H672.056L672.055 32.5221L671.827 -155.529L671.826 -156.528H670.827H643.621L643.415 -176.143H715.21L806.123 20.8379L807.026 22.7957L807.937 20.8413L899.533 -175.714L969.065 -176.136V-156.744H941.642H940.642V-155.744V32.5233V33.5233H941.642H969.065V54.0029H887.615V33.5233H910.036H911.036V32.5233V-136.29V-137.29H910.036H909.581H908.943L908.674 -136.711L820.718 52.706H792.658L703.566 -136.5L703.296 -137.074H702.661H702.434H701.434V-136.074V32.5233V33.5233H702.434Z" stroke="white" stroke-width="2"/>
</g>
<defs>
<linearGradient id="paint0_linear" x1="-128" y1="188.954" x2="739" y2="188.953" gradientUnits="userSpaceOnUse">
<stop stop-color="white"/>
<stop offset="1" stop-color="white" stop-opacity="0"/>
</linearGradient>
</defs>
</svg>
