<svg width="56" height="67" viewBox="0 0 56 67" fill="none" xmlns="http://www.w3.org/2000/svg">
<g clip-path="url(#clip0)">
<path d="M47.7946 8.23981C36.8544 -2.74585 19.1469 -2.74703 8.20555 8.23981C-2.73434 19.2251 -2.73603 37.0067 8.20555 47.9935L26.5206 66.3848C27.3378 67.2054 28.6625 67.2053 29.4796 66.3848L47.7947 47.9935C58.7343 37.0082 58.736 19.2266 47.7946 8.23981Z" fill="#46C2C5"/>
</g>
<g clip-path="url(#clip1)">
<path d="M13.8478 39.9831L13.8536 38.9848L12.5687 38.9818V35.3516H19.3803V38.9804L18.1497 38.9848L18.1519 39.9831H21.9249L21.9272 38.9869L20.7147 38.9862L20.7184 30.5899L21.9262 30.5932L21.9301 29.6378L18.149 29.6342L18.1482 30.5927L19.3803 30.5936V34.3489L12.5687 34.3525V30.5935L13.8471 30.5927L13.8507 29.6342H10.0007L10.0021 30.587L11.2887 30.5841L11.2742 38.9804L10 38.9847L10.0022 39.9795L13.8478 39.9831Z" fill="white"/>
<path d="M25.377 34.2212V30.6233H27.2431C28.7263 30.6233 29.6036 31.0372 29.6036 32.2471C29.6036 33.6798 28.4871 34.2211 27.8491 34.2211H25.377V34.2212ZM27.9129 35.0967C29.2845 35.0967 30.1458 35.5902 30.1458 36.8638C30.1458 38.2329 29.3273 38.9891 27.2698 38.9891L25.3769 38.9854V35.0966H27.9129V35.0967ZM27.3387 39.9999C30.2733 39.9999 31.4376 38.7105 31.4376 36.8638C31.4376 35.6061 30.7039 34.7942 29.4599 34.4599C30.1616 33.9982 30.8474 33.25 30.8474 32.1198C30.8474 30.6074 29.747 29.6523 27.3066 29.6523L22.9888 29.6342L22.9939 30.5907L24.1806 30.5915V38.9862L22.9917 38.9834L22.9938 39.9783L27.3387 39.9999Z" fill="white"/>
<path d="M35.5811 39.9818L35.5817 38.987L34.5107 38.9862V31.467H34.5263L38.3252 39.9322H39.5703L43.3326 31.449H43.3481L43.3464 38.987L42.3546 38.9877L42.3515 39.9819H45.9006L45.9012 38.987L44.6905 38.9841L44.6913 30.5883L45.9017 30.5876V29.6342L42.8699 29.6486L38.9653 38.4473L35.0875 29.6342L31.9604 29.6305L31.9645 30.5908L33.1672 30.5915L33.1734 38.9862L31.9681 38.9833L31.9651 39.9782L35.5811 39.9818Z" fill="white"/>
<path d="M45.8964 25.5439H10.02V26.8666H45.8964V25.5439Z" fill="white"/>
<path fill-rule="evenodd" clip-rule="evenodd" d="M18.7251 11.9847L11.2788 17.1182L11.2818 22.7917H12.57V17.4234L15.8883 15.1672L19.3775 17.4231L19.3774 22.7834L20.7097 22.7833L20.7099 17.4232L30.5012 11.4273L32.4017 12.7942L33.4166 12.094L30.5003 10L27.4322 11.9847H18.7251Z" fill="white"/>
<path fill-rule="evenodd" clip-rule="evenodd" d="M14.7329 17.4226L17.0329 17.4214V19.709H14.7372L14.7329 17.4226Z" fill="white"/>
<path d="M35.471 17.4208H33.1753V19.7084H35.471V17.4208Z" fill="white"/>
<path d="M38.1741 17.4208H35.8784V19.7084H38.1741V17.4208Z" fill="white"/>
<path d="M35.471 20.1404H33.1753V22.4291H35.471V20.1404Z" fill="white"/>
<path d="M38.1741 20.1404H35.8784V22.4291H38.1741V20.1404Z" fill="white"/>
<path d="M42.3957 12.0161H41.0293V15.6728H42.3957V12.0161Z" fill="white"/>
<path fill-rule="evenodd" clip-rule="evenodd" d="M43.3472 17.4173L44.6926 17.1205L44.6899 22.7837H43.3462L43.3472 17.4173Z" fill="white"/>
<path fill-rule="evenodd" clip-rule="evenodd" d="M25.3462 17.4453L35.7695 10.5555L44.8847 17.1457L43.5429 17.4568L35.7768 12.0129L27.4141 17.4453H25.3462Z" fill="white"/>
</g>
<defs>
<clipPath id="clip0">
<rect width="56" height="67" fill="white"/>
</clipPath>
<clipPath id="clip1">
<rect width="35.9016" height="30" fill="white" transform="translate(10 10)"/>
</clipPath>
</defs>
</svg>
