<svg display="none" xmlns="http://www.w3.org/2000/svg">
        <symbol id="key" viewBox="0 0 44 44">
            <g>
                <path d="M9.79622 29.3882C7.39583 29.3882 5.44238 31.3416 5.44238 33.742C5.44238 36.1424 7.39583 38.0959 9.79622 38.0959C12.1966 38.0959 14.1501 36.1424 14.1501 33.742C14.1501 31.3416 12.1966 29.3882 9.79622 29.3882ZM9.79622 35.9189C8.59381 35.9189 7.6193 34.9444 7.6193 33.742C7.6193 32.5396 8.59381 31.5651 9.79622 31.5651C10.9986 31.5651 11.9731 32.5396 11.9731 33.742C11.9731 34.9444 10.9986 35.9189 9.79622 35.9189Z" fill=""/>
                <path d="M41.3614 0H37.0076C36.4299 0 35.8764 0.229342 35.4685 0.637854L17.7912 18.3151C16.3225 17.7419 14.7304 17.4153 13.0615 17.4153C5.85956 17.4153 0 23.2749 0 30.4768C0 37.6788 5.85956 43.5383 13.0615 43.5383C20.2634 43.5383 26.123 37.6788 26.123 30.4768C26.123 28.8078 25.7965 27.2158 25.2232 25.7471L28.6599 22.3105C29.1127 21.8577 29.3434 21.2286 29.2897 20.5907L29.0996 18.3043L29.5524 17.8326L30.7076 18.3275C30.9841 18.4458 31.2758 18.5039 31.5646 18.5039C32.1306 18.5039 32.6879 18.2833 33.1044 17.866L34.42 16.5504C34.8365 16.1339 35.0666 15.5665 35.0571 14.9773L35.0462 14.2858H35.7827C36.3647 14.2858 36.922 14.0528 37.3306 13.6392C37.7398 13.2256 37.9662 12.6654 37.959 12.0835L37.9386 10.3398H39.7274C40.305 10.3398 40.8586 10.1104 41.2664 9.70191L42.8991 8.06922C43.309 7.66198 43.5383 7.1084 43.5383 6.53075V2.17692C43.5383 0.97451 42.5638 0 41.3614 0ZM13.0615 41.3614C7.05032 41.3614 2.17692 36.488 2.17692 30.4768C2.17692 24.4657 7.05032 19.5923 13.0615 19.5923C19.0727 19.5923 23.9461 24.4657 23.9461 30.4768C23.9461 36.488 19.0727 41.3614 13.0615 41.3614ZM41.3614 6.53075L39.7287 8.16344H35.7377L35.7827 12.1094H32.8352L32.881 15.012L31.5653 16.3269L29.0255 15.2384L26.8486 17.5061L27.1207 20.7714L24.2008 23.6914C23.1152 21.9165 21.6218 20.4231 19.8469 19.3376L37.0076 2.17692H41.3614V6.53075Z" fill=""/>
            </g>
        </symbol>

        <symbol id="house" viewBox="0 0 44 44">
            <g>
                <path d="M42.4499 41.3614H39.1845V23.9461H41.3614C42.2416 23.9461 43.0354 23.4156 43.3729 22.6022C43.7095 21.7887 43.5238 20.8527 42.9012 20.2293L23.3089 0.637088C22.8837 0.21259 22.3265 0 21.7692 0C21.2118 0 20.6546 0.21259 20.2301 0.637854L14.15 6.71723V4.35383C14.15 3.15143 13.1754 2.17692 11.973 2.17692H9.79613C8.59372 2.17692 7.61921 3.15143 7.61921 4.35383V13.248L0.637854 20.2293C0.0152214 20.852 -0.171262 21.788 0.16616 22.6022C0.502817 23.4156 1.29671 23.9461 2.17692 23.9461H4.35383V41.3614H1.08846C0.486915 41.3614 0 41.8483 0 42.4499C0 43.0514 0.486915 43.5383 1.08846 43.5383H42.4499C43.0514 43.5383 43.5383 43.0514 43.5383 42.4499C43.5383 41.8483 43.0514 41.3614 42.4499 41.3614ZM9.79613 4.35383H11.973V8.89415L9.79613 11.0711V4.35383ZM37.0076 41.3614H6.53075V21.7692H2.17692L21.7692 2.17692L41.3614 21.7692H37.0076V41.3614Z" fill=""/>
                <path d="M29.7126 18.8227L12.2979 36.2378L13.8371 37.7771L31.2519 20.362L29.7126 18.8227Z" fill=""/>
                <path d="M16.3275 18.5034C13.9271 18.5034 11.9736 20.4561 11.9736 22.8573C11.9736 25.2584 13.9278 27.2111 16.3275 27.2111C18.7279 27.2111 20.6813 25.2584 20.6813 22.8573C20.6813 20.4561 18.7279 18.5034 16.3275 18.5034ZM16.3275 25.0342C15.1265 25.0342 14.1505 24.0574 14.1505 22.8573C14.1505 21.6571 15.1265 20.6803 16.3275 20.6803C17.5284 20.6803 18.5044 21.6571 18.5044 22.8573C18.5044 24.0574 17.5284 25.0342 16.3275 25.0342Z" fill=""/>
                <path d="M27.2152 29.3882C24.8148 29.3882 22.8613 31.3409 22.8613 33.742C22.8613 36.1432 24.8148 38.0959 27.2152 38.0959C29.6156 38.0959 31.569 36.1432 31.569 33.742C31.569 31.3409 29.6156 29.3882 27.2152 29.3882ZM27.2152 35.9189C26.0142 35.9189 25.0382 34.9422 25.0382 33.742C25.0382 32.5418 26.0142 31.5651 27.2152 31.5651C28.4161 31.5651 29.3921 32.5418 29.3921 33.742C29.3921 34.9422 28.4161 35.9189 27.2152 35.9189Z" fill=""/>
            </g>
        </symbol>

        <symbol id="home" viewBox="0 0 44 44">
            <g>
                <path d="M42.624 17.82L27.3855 6.93541C27.0068 6.66474 26.5634 6.52979 26.12 6.52979C25.6767 6.52979 25.2333 6.66474 24.8545 6.93541L15.3509 13.7237C15.9799 14.1148 16.5017 14.6606 16.8646 15.318L26.12 8.7067L41.3585 19.5913H37.0046V39.1835H15.4227L15.25 41.3605H37.0046C38.207 41.3605 39.1815 40.3859 39.1815 39.1835V21.7682H41.3585C42.3047 21.7682 43.1428 21.1572 43.4309 20.256C43.7204 19.3547 43.3939 18.37 42.624 17.82Z" fill=""/>
                <path d="M17.3794 28.9981L15.2025 17.0251C15.0145 15.9903 14.1132 15.2378 13.0611 15.2378H4.35342C3.30127 15.2378 2.39997 15.9903 2.21204 17.0258L0.0351261 28.9988C-0.0802675 29.6338 0.0917599 30.2875 0.505374 30.7831C0.918988 31.2787 1.53142 31.5646 2.1765 31.5646H3.56751L4.36064 41.5334C4.45061 42.6647 5.39468 43.5377 6.53033 43.5377H10.8842C12.0198 43.5377 12.9646 42.6647 13.0545 41.5335L13.847 31.5647H15.238C15.8838 31.5647 16.4955 31.278 16.9091 30.7824C17.3227 30.2868 17.4948 29.6338 17.3794 28.9981ZM11.8362 29.3878L10.8842 41.3608H6.53033L5.57827 29.3878H2.1765L4.35342 17.4147H7.61879V24.0369C7.61879 24.6384 8.10571 25.1253 8.70725 25.1253C9.30879 25.1253 9.79571 24.6384 9.79571 24.0369V17.4147H13.0611L15.238 29.3878H11.8362Z" fill=""/>
                <path d="M8.70946 0C5.10888 0 2.17871 2.93016 2.17871 6.53075C2.17871 10.1313 5.10888 13.0615 8.70946 13.0615C12.3108 13.0615 15.2402 10.1321 15.2402 6.53075C15.2402 2.9294 12.3108 0 8.70946 0ZM8.70946 10.8846C6.30473 10.8846 4.35563 8.93548 4.35563 6.53075C4.35563 4.12602 6.30473 2.17692 8.70946 2.17692C11.1142 2.17692 13.0633 4.12602 13.0633 6.53075C13.0633 8.93548 11.1142 10.8846 8.70946 10.8846Z" fill=""/>
            </g>
        </symbol>

        <symbol id="building" viewBox="0 0 44 44">
            <g>
                <path d="M41.3625 34.5745H36.5987C36.6016 34.5295 36.6248 34.4918 36.6248 34.4468V29.8368C36.6248 28.6344 35.6503 27.6599 34.4479 27.6599H29.6841C29.687 27.6149 29.7102 27.5772 29.7102 27.5315V22.9215C29.7102 21.7191 28.7357 20.7446 27.5333 20.7446H16.0079C14.8055 20.7446 13.8309 21.7191 13.8309 22.9215V27.5315C13.8309 27.5773 13.8542 27.6149 13.8571 27.6599H9.09326C7.89085 27.6599 6.91634 28.6344 6.91634 29.8368V34.4468C6.91634 34.4925 6.93956 34.5302 6.94245 34.5745H2.17789C0.975487 34.5745 0.000976562 35.549 0.000976562 36.7514V41.3614C0.000976562 42.5638 0.975487 43.5383 2.17789 43.5383H41.3624C42.5648 43.5383 43.5393 42.5638 43.5393 41.3614V36.7514C43.5394 35.5491 42.5648 34.5745 41.3625 34.5745ZM34.4478 29.8368V34.4468H22.9225V29.8368H34.4478ZM16.0079 22.9215H27.5324V27.5315H16.0079V22.9215ZM9.09326 29.8368H20.6178V34.4468H9.09326V29.8368ZM13.7025 41.3615H2.17789V36.7515H13.7025V41.3615H13.7025ZM27.5325 41.3615H16.0079V36.7515H27.5324V41.3615H27.5325ZM41.3625 41.3615H29.8378V36.7515H41.3624V41.3615H41.3625Z" fill=""/>
                <path d="M30.6562 0.637718C30.0343 0.0165316 29.1003 -0.170632 28.2877 0.163899L15.2029 5.55177C14.933 5.66283 14.6928 5.82533 14.4925 6.02559C14.1929 6.32525 13.9824 6.71055 13.8968 7.13803C13.7538 7.85207 13.9773 8.58933 14.4918 9.10448L17.5707 12.1834L16.4161 13.3379L11.5674 12.6456C11.2285 12.597 10.8853 12.7109 10.6437 12.9533L9.10459 14.4923C8.25415 13.6419 6.87614 13.6419 6.0257 14.4923L0.637832 19.8802C-0.212611 20.7307 -0.212611 22.1087 0.637832 22.9591L2.17766 24.4967C3.0281 25.3472 4.40611 25.3472 5.25655 24.4967L10.6444 19.1089C11.4949 18.2584 11.4949 16.8804 10.6444 16.03L11.799 14.8754L16.6477 15.5677C16.9866 15.6164 17.3298 15.5024 17.5714 15.2601L19.1105 13.721L22.1894 16.7999C22.7039 17.3143 23.4419 17.5378 24.1558 17.3949C24.5832 17.3092 24.9685 17.0988 25.2683 16.7999C25.4685 16.5996 25.6311 16.3594 25.7421 16.0895L31.13 3.00546C31.4645 2.19277 31.278 1.2589 30.6562 0.637718ZM3.71681 22.9577L2.17775 21.4186L7.56562 16.0307L9.10468 17.5698L3.71681 22.9577ZM23.7277 15.2608L20.6488 12.1819L22.9578 9.87295C23.383 9.44769 23.383 8.75906 22.9578 8.33389C22.5325 7.90871 21.8439 7.90871 21.4187 8.33389L19.1097 10.6429L16.0316 7.56474L29.1156 2.17687L23.7277 15.2608Z" fill=""/>
            </g>
        </symbol>

        <symbol id="geo" viewBox="0 0 40 35">
            <g>
                <path d="M39.2111 0.130479C38.8084 -0.043493 38.334 -0.043493 37.9313 0.130479L0.789499 16.1399C0.0839667 16.4443 -0.201711 17.1841 0.151348 17.7923C0.352318 18.1385 0.730488 18.3831 1.17227 18.4526L15.9133 20.7641L18.5946 33.4718C18.7044 33.9927 19.1882 34.3949 19.796 34.4706C19.8632 34.4789 19.931 34.4831 19.9988 34.4829C20.5403 34.4831 21.0353 34.2195 21.2774 33.8019L39.8484 1.7831C40.2018 1.17503 39.9164 0.435128 39.2111 0.130479Z" fill=""/>
            </g>
        </symbol>

        <symbol id="advantage1" viewBox="0 0 42 42">
            <g>
                <path d="M16.8854 6.02168C13.2162 2.35433 6.03596 1.92908 0.953578 1.92908C0.42722 1.92908 0 2.35621 0 2.88257C0 7.96495 0.423376 15.1452 4.0926 18.8145C5.64119 20.3631 8.01553 21.0554 10.3689 21.0554C12.9263 21.0554 15.4608 20.2372 16.8854 18.8126C19.6183 16.0797 20.1199 9.25421 16.8854 6.02168ZM15.5372 17.4661C13.4965 19.5048 7.83057 19.8538 5.44291 17.4661C2.48116 14.5045 1.96812 8.48755 1.91279 3.84187C6.55848 3.8972 12.5754 4.41015 15.5371 7.3719C17.9248 9.75956 17.5758 15.4275 15.5372 17.4661Z" fill="#48C0C2"/>
                <path d="M41.0466 5.70129C35.9643 5.70129 28.784 6.12467 25.1147 9.79389C21.8803 13.0264 22.3818 19.8519 25.1147 22.5848C26.5393 24.0075 29.072 24.8257 31.6294 24.8257C33.9827 24.8257 36.3552 24.1353 37.9075 22.5868C41.5749 18.9176 42.0001 11.7373 42.0001 6.65487C42.0002 6.12851 41.573 5.70129 41.0466 5.70129ZM36.5554 21.2365C34.1678 23.6241 28.4998 23.2751 26.4612 21.2365C24.4225 19.1978 24.0735 13.5299 26.4612 11.1422C29.4229 8.18049 35.4398 7.66754 40.0855 7.6122C40.0302 12.2598 39.5172 18.2767 36.5554 21.2365Z" fill="#48C0C2"/>
                <path d="M34.159 13.9552C33.934 13.4765 33.2894 13.3125 32.8145 13.5337C25.5008 16.9722 21.9078 22.9681 20.2753 29.1318C18.2557 16.0262 12.4142 12.0309 9.93692 10.3355C9.62797 10.1238 9.38768 9.96934 9.25421 9.83775C8.88233 9.46587 8.27775 9.46587 7.90587 9.83775C7.53398 10.2096 7.53398 10.8142 7.90587 11.1861C8.09467 11.373 8.42078 11.6076 8.86132 11.9089C11.6533 13.8179 19.07 18.8927 19.07 39.1174C19.07 39.6438 19.4972 40.071 20.0236 40.071C20.5499 40.071 20.9771 39.6438 20.9771 39.1194C20.9771 30.9475 23.1722 20.1743 33.6269 15.2616C33.6269 15.2597 33.7814 15.1872 33.7814 15.1872C34.2563 14.9622 34.384 14.4319 34.159 13.9552Z" fill="#48C0C2"/>
            </g>
        </symbol>
        <symbol id="advantage2" viewBox="0 0 42 42">
            <g>
                <path d="M25.7496 17.0987L19.4391 23.0591L16.4105 19.9433C16.0748 19.5977 15.5219 19.5898 15.1766 19.9256C14.831 20.2616 14.8231 20.8142 15.1588 21.1598L18.7912 24.8886C19.1287 25.2281 19.674 25.2398 20.0255 24.9146L26.9665 18.3678C27.135 18.2089 27.2335 17.9894 27.24 17.7579C27.2465 17.5264 27.1607 17.3018 27.0014 17.1336C26.6636 16.7824 26.1066 16.767 25.7496 17.0987Z" fill="#48C0C2"/>
                <path d="M21.0686 7.92566C13.8565 7.92566 7.99219 13.79 7.99219 21.0021C7.99219 28.2146 13.8565 34.0789 21.0686 34.0789C28.2811 34.0789 34.1454 28.2146 34.1454 21.0021C34.1454 13.79 28.2811 7.92566 21.0686 7.92566ZM21.0686 32.3284C14.8193 32.3284 9.74273 27.2429 9.74273 21.0021C9.74273 14.7613 14.8193 9.67621 21.0686 9.67621C27.3241 9.67621 32.3949 14.747 32.3949 21.0021C32.3949 27.2572 27.3241 32.3284 21.0686 32.3284Z" fill="#48C0C2"/>
                <path d="M39.0633 16.1881L39.3522 10.9976C39.3724 10.6492 39.183 10.322 38.8708 10.1661L34.2493 7.82922L31.9124 3.2077C31.7534 2.89828 31.4282 2.70989 31.0809 2.7263L25.8815 3.00667L21.5489 0.144247C21.257 -0.048245 20.8785 -0.048245 20.5861 0.144247L16.2535 3.00667L11.0634 2.71776C10.7147 2.69724 10.3878 2.88666 10.2319 3.19916L7.89467 7.82067L3.2735 10.1576C2.96373 10.3162 2.77569 10.6414 2.7921 10.9891L3.08066 16.1795L0.218588 20.5121C0.0260958 20.8041 0.0260958 21.1826 0.218588 21.4749L3.07212 25.8161L2.78321 31.0065C2.76304 31.3549 2.95211 31.6821 3.26461 31.838L7.88612 34.175L10.223 38.7965C10.3817 39.1062 10.7068 39.2943 11.0545 39.2779L16.245 38.989L20.5776 41.851C20.8679 42.0497 21.2501 42.0497 21.5404 41.851L25.873 38.989L31.0634 39.2779C31.4118 39.298 31.7387 39.1086 31.8949 38.7965L34.2319 34.175L38.8534 31.838C39.1628 31.6791 39.3512 31.3542 39.3348 31.0065L39.0459 25.8161L41.9079 21.4835C42.1004 21.1915 42.1004 20.8127 41.9079 20.5207L39.0633 16.1881ZM37.4352 25.0984C37.3285 25.255 37.2789 25.4434 37.2953 25.6325L37.5664 30.5426L33.199 32.7482C33.0325 32.8316 32.8974 32.967 32.814 33.1335L30.608 37.501L25.6979 37.2299C25.5099 37.223 25.3242 37.2716 25.1639 37.3697L21.0675 40.0745L16.9715 37.3697C16.8293 37.2736 16.6618 37.2217 16.4901 37.221H16.4464L11.5359 37.4924L9.33032 33.1246C9.2469 32.9581 9.11185 32.8231 8.945 32.7396L4.56863 30.5426L4.8401 25.6325C4.84694 25.4444 4.79805 25.2588 4.69992 25.0984L1.99546 21.0021L4.69992 16.9057C4.80694 16.7495 4.85651 16.5608 4.8401 16.372L4.56863 11.4616L8.93645 9.25598C9.10296 9.17256 9.23801 9.03751 9.32143 8.871L11.5271 4.50318L16.4375 4.77465C16.6252 4.78115 16.8108 4.7326 16.9715 4.63447L21.0675 1.93001L25.1639 4.63447C25.3205 4.74148 25.5092 4.79106 25.6979 4.77465L30.608 4.50318L32.814 8.871C32.8974 9.03751 33.0325 9.17256 33.199 9.25598L37.5664 11.4616L37.2953 16.372C37.2885 16.5597 37.3374 16.7454 37.4352 16.9057L40.14 21.0021L37.4352 25.0984Z" fill="#48C0C2"/>
            </g>
        </symbol>
        <symbol id="advantage3" viewBox="0 0 50 50">
            <g>
                <path d="M42.3278 8.65271C42.4281 7.93401 41.6108 7.61729 41.3358 7.51283L28.9785 2.79704C28.3526 2.55887 27.4308 1.89283 27.0097 1.3722L26.4815 0.722034C26.1021 0.256556 25.5907 0 25.0424 0C24.4675 0 23.9268 0.290819 23.5566 0.793903L23.2758 1.17581C22.8847 1.70814 22.0031 2.38254 21.3863 2.61988L8.66215 7.50948C8.38971 7.61562 7.57492 7.93318 7.67269 8.64936C7.67186 8.67025 7.66016 8.6878 7.66016 8.70953V13.4663C7.66016 13.8682 7.98524 14.1925 8.3872 14.1925C8.78917 14.1925 9.11342 13.8674 9.11342 13.4663V9.43574H20.3827L13.3529 49.1476C13.2827 49.5429 13.5467 49.9198 13.9429 49.9883C14.3356 50.061 14.7134 49.7953 14.7836 49.4008L16.4574 39.9475H33.6199L35.5128 49.4167C35.583 49.761 35.8855 50 36.2248 50C36.2724 50 36.3201 49.9958 36.3677 49.985C36.7613 49.9064 37.017 49.5245 36.9393 49.1317L29.0095 9.43574H40.8854V13.4663C40.8854 13.8682 41.2113 14.1925 41.6116 14.1925C42.0144 14.1925 42.3395 13.8674 42.3395 13.4663V8.70953C42.3403 8.68864 42.3295 8.67193 42.3278 8.65271ZM19.7133 21.5616H23.2549L18.7155 27.1908L19.7133 21.5616ZM19.0272 29.1212L24.7859 21.9777L30.787 29.1212H19.0272ZM29.1858 30.5736L24.8319 33.1216L20.2882 30.5736H29.1858ZM18.0444 30.9814L23.3786 33.9715L16.8393 37.7973L18.0444 30.9814ZM18.5299 38.4926L24.8469 34.7955L31.4388 38.4926H18.5299ZM33.1954 37.8123L26.3002 33.9456L31.7831 30.7374L33.1954 37.8123ZM31.0786 27.21L26.3328 21.5624H29.9496L31.0786 27.21ZM29.6596 20.1083H19.9698L21.7615 9.98646H27.6381L29.6596 20.1083ZM11.4818 7.98332L21.907 3.97536C22.7786 3.64109 23.8951 2.78785 24.4474 2.03573L24.7274 1.65466C24.9154 1.39727 25.1553 1.39643 25.3542 1.63962L25.8823 2.28895C26.4656 3.0068 27.5997 3.82661 28.4612 4.15504L38.4945 7.98332H11.4818Z" fill="#48C0C2"/>
            </g>
        </symbol>
    </svg>