<svg width="266" height="73" viewBox="0 0 266 73" fill="none" xmlns="http://www.w3.org/2000/svg">
<path d="M18.8884 3.01228C17.9291 2.96209 16.9156 3.01895 15.8478 3.18286C14.7759 3.32313 13.7227 3.56975 12.6883 3.92274C11.6539 4.27573 10.6737 4.72883 9.74769 5.28203C8.81751 5.8116 8.01037 6.41695 7.32626 7.0981C6.52117 7.92242 5.75082 8.87466 5.01521 9.95481C4.27543 11.0113 3.63505 12.1478 3.09406 13.3642C2.57254 14.5528 2.16988 15.7936 1.88608 17.0865C1.59811 18.3558 1.49158 19.6175 1.56648 20.8715C1.66085 22.0978 1.95404 23.2768 2.44604 24.4085C2.95751 25.5125 3.73037 26.5094 4.76461 27.3993C4.43777 28.3099 4.07131 29.2031 3.66522 30.079C3.28277 30.9506 2.82108 31.7875 2.28015 32.5896C2.05487 32.9705 1.78789 33.3222 1.4792 33.6447C1.17051 33.9672 0.901445 34.3071 0.671999 34.6644C0.46202 34.9939 0.356317 35.2928 0.354889 35.5611C0.349294 35.8058 0.40627 35.9907 0.525817 36.1158C0.673167 36.2604 0.869186 36.3355 1.11388 36.3411C1.38637 36.3662 1.68946 36.2884 2.02315 36.1077C2.26647 35.9673 2.49381 35.8054 2.70515 35.6219C2.92067 35.462 3.15009 35.3119 3.39341 35.1715C4.09556 34.7309 4.75738 34.4071 5.37887 34.2C6.00035 33.9929 6.62044 33.847 7.23913 33.7623C7.87728 33.6498 8.52586 33.5964 9.18485 33.602C9.83967 33.584 10.5633 33.5417 11.3558 33.4751C12.5111 33.3932 13.5879 33.1424 14.5862 32.7227C15.5845 32.303 16.5147 31.7734 17.3767 31.134C18.2624 30.4904 19.0863 29.7725 19.8483 28.9801C20.6339 28.1836 21.3778 27.3579 22.08 26.5029C22.9421 25.4492 23.725 24.1536 24.4287 22.616C25.1324 21.0785 25.6777 19.4714 26.0644 17.7948C26.4706 16.0903 26.6696 14.3859 26.6615 12.6814C26.6771 10.9727 26.4159 9.42253 25.8781 8.03078C25.3638 6.63486 24.5382 5.47664 23.4011 4.55612C22.2876 3.63143 20.7834 3.11681 18.8884 3.01228ZM23.2843 19.2354C22.8712 20.6242 22.3114 21.9415 21.605 23.187C20.9222 24.4285 20.1338 25.5545 19.2397 26.5651C18.365 27.5479 17.43 28.3952 16.4344 29.1068C15.4389 29.8185 14.4475 30.3467 13.4604 30.6914C12.7721 30.9346 12.0575 31.0971 11.3165 31.179C10.5949 31.2332 9.86154 31.2894 9.11634 31.3477C8.39478 31.4018 7.66556 31.4816 6.9287 31.5872C6.21547 31.6886 5.53281 31.8942 4.88073 32.2042C5.22561 31.5341 5.52947 30.9078 5.79232 30.3253C6.05516 29.7428 6.33331 29.1089 6.62675 28.4235C7.0619 28.5418 7.54014 28.628 8.06149 28.6823C8.58284 28.7366 9.10767 28.7416 9.63598 28.6972C10.1643 28.6527 10.6843 28.5611 11.1959 28.4221C11.7076 28.2831 12.1594 28.0816 12.5515 27.8175C12.7907 27.6535 12.9666 27.4763 13.0792 27.2858C13.1877 27.0717 13.1655 26.8076 13.0126 26.4933C12.8597 26.1791 12.6707 26.0053 12.4454 25.9719C12.2397 25.9107 11.9873 25.9308 11.6884 26.0323C11.224 26.1629 10.8327 26.2928 10.5143 26.4221C10.1917 26.5277 9.87679 26.6076 9.56953 26.6618C9.28591 26.7118 8.96058 26.7326 8.59355 26.7242C8.25015 26.7116 7.82542 26.6525 7.31938 26.5468C7.78809 25.1969 8.20745 23.8435 8.57745 22.4866C8.94746 21.1298 9.32719 19.759 9.71667 18.3743C10.0797 17.1162 10.5415 15.865 11.1019 14.6207C11.6624 13.3765 12.4355 12.3019 13.4214 11.397C13.5896 11.2455 13.7717 11.1037 13.9678 10.9717C14.1875 10.8354 14.3814 10.6916 14.5497 10.5401C14.7805 10.3288 14.9286 10.1321 14.994 9.94994C15.0788 9.74002 15.033 9.48003 14.8564 9.16997C14.6841 8.88355 14.4874 8.73546 14.2663 8.72569C14.0411 8.6923 13.7811 8.73814 13.4864 8.86322C12.9677 9.10089 12.4623 9.48245 11.9701 10.0079C11.4973 10.5056 11.0489 11.072 10.6248 11.7073C10.2201 12.3148 9.84533 12.9536 9.50044 13.6237C9.17503 14.266 8.9101 14.8366 8.70566 15.3357C8.04644 16.9873 7.46437 18.6618 6.95946 20.3593C6.47819 22.0526 5.97328 23.75 5.44473 25.4517C4.90957 24.7662 4.48077 24.0619 4.15832 23.3389C3.83588 22.6159 3.63301 21.8109 3.54971 20.9239C3.46505 19.8909 3.5514 18.7912 3.80876 17.6248C4.06613 16.4584 4.43819 15.3205 4.92494 14.2111C5.4117 13.1018 5.98186 12.0508 6.63543 11.0582C7.31264 10.0615 8.01485 9.20656 8.74207 8.49344C9.32467 7.92768 10.0143 7.41615 10.811 6.95886C11.6272 6.47376 12.4837 6.07904 13.3804 5.7747C14.3008 5.46618 15.224 5.24247 16.15 5.10357C17.0759 4.96468 17.9476 4.93282 18.7651 5.00801C20.3486 5.14309 21.5706 5.64654 22.4311 6.51837C23.2915 7.39019 23.8621 8.48373 24.1427 9.79898C24.4234 11.1142 24.4649 12.5935 24.2672 14.2368C24.0932 15.8759 23.7656 17.5421 23.2843 19.2354ZM46.5334 18.3894C46.7795 18.1267 46.9012 17.8493 46.8985 17.5574C46.9152 17.2376 46.8457 16.9818 46.6901 16.7899C46.558 16.5938 46.3696 16.493 46.1249 16.4874C45.8761 16.4582 45.6189 16.5888 45.3533 16.8794C44.9626 17.2895 44.5378 17.6446 44.0789 17.9448C43.6201 18.2451 43.155 18.5099 42.6837 18.7392C42.2082 18.9449 41.7306 19.1388 41.2509 19.3208C40.7671 19.4793 40.3069 19.6335 39.8703 19.7836C39.8481 19.5194 39.828 19.2671 39.8099 19.0266C39.7919 18.7861 39.7718 18.5337 39.7496 18.2696C39.6037 17.4423 39.2875 16.7548 38.801 16.207C38.3103 15.6355 37.7362 15.2128 37.0786 14.9388C36.4447 14.6606 35.7607 14.5132 35.0266 14.4964C34.2925 14.4796 33.605 14.5886 32.9641 14.8235C32.3231 15.0584 31.7544 15.4267 31.258 15.9285C30.7853 16.4262 30.4793 17.0407 30.3402 17.7719C29.6658 18.232 29.0318 18.7825 28.4381 19.4233C27.868 20.06 27.3813 20.7551 26.978 21.5085C26.5747 22.262 26.2764 23.0579 26.083 23.8962C25.9091 24.7067 25.8972 25.5374 26.0472 26.3883C26.2014 27.2628 26.4981 27.9782 26.9374 28.5343C27.3961 29.0627 27.9403 29.4541 28.5701 29.7087C29.1999 29.9632 29.8818 30.0988 30.6158 30.1156C31.3694 30.1046 32.1257 29.9712 32.8848 29.7155C33.6718 29.4793 34.4177 29.0797 35.1227 28.5167C35.8234 27.9301 36.4506 27.2712 37.004 26.54C37.5811 25.8046 38.0768 25.0226 38.4912 24.1941C38.9056 23.3655 39.2297 22.5773 39.4634 21.8293C40.0028 21.7099 40.5659 21.5862 41.1526 21.4584C41.7352 21.3069 42.3212 21.1061 42.9107 20.8559C43.5239 20.6016 44.1384 20.2861 44.7543 19.9094C45.3661 19.5091 45.9592 19.0024 46.5334 18.3894ZM37.5054 20.0544C37.2134 20.0571 36.8958 20.0522 36.5524 20.0397C36.2048 20.0035 35.8572 19.9673 35.5097 19.9311C35.1579 19.8712 34.8159 19.7975 34.4837 19.7099C34.1709 19.5944 33.8894 19.4491 33.6391 19.2739C33.0872 18.9082 32.8071 18.4945 32.7989 18.0329C32.7906 17.5714 32.9992 17.0959 33.4247 16.6066C34.1032 16.5845 34.7031 16.6005 35.2244 16.6548C35.7458 16.7091 36.1872 16.8628 36.5486 17.1159C36.9059 17.3453 37.1637 17.702 37.3221 18.1858C37.4764 18.646 37.5375 19.2689 37.5054 20.0544ZM36.9274 22.1668C36.6604 22.7257 36.3211 23.3582 35.9095 24.0644C35.5215 24.7665 35.0619 25.408 34.5308 25.9891C34.0232 26.566 33.4476 27.033 32.8038 27.3902C32.1601 27.7475 31.4531 27.8843 30.6829 27.8008C29.9878 27.7284 29.4192 27.4753 28.9771 27.0414C28.5545 26.5798 28.3419 25.9959 28.3392 25.2896C28.3449 24.2163 28.6058 23.2077 29.1217 22.2638C29.6334 21.2962 30.2668 20.4656 31.0218 19.7719C31.9212 20.5882 32.8262 21.1597 33.7368 21.4865C34.6711 21.8092 35.7346 22.036 36.9274 22.1668ZM52.3393 17.2194C52.6076 18.0495 52.7284 18.7349 52.7019 19.2757C52.6991 19.8124 52.5975 20.342 52.3972 20.8648C52.2206 21.3833 51.9828 21.9005 51.6838 22.4162C51.3848 22.932 51.058 23.4282 50.7034 23.9051C50.3489 24.3819 49.9268 24.8218 49.4374 25.225C48.9674 25.6003 48.5065 25.8887 48.0546 26.0902C47.6028 26.2917 47.1912 26.3765 46.82 26.3445C46.4488 26.3124 46.1826 26.1157 46.0214 25.7542C45.8282 25.3496 45.7525 24.8512 45.7943 24.2589C45.8319 23.643 45.9273 22.8707 46.0803 21.942C46.257 21.0092 46.4379 20.1 46.6229 19.2144C46.8316 18.3246 47.189 17.3112 47.6952 16.174C48.4029 15.903 49.1217 15.764 49.8516 15.7572C50.5815 15.7503 51.1272 15.8735 51.4886 16.1265C51.8459 16.356 52.1295 16.7203 52.3393 17.2194ZM54.5647 15.9497L53.9955 15.2093C53.5048 14.6378 52.8813 14.2116 52.125 13.9307C51.3646 13.6261 50.2224 13.6447 48.6986 13.9865L49.4747 12.1681C49.9878 11.3465 50.5927 10.4235 51.2894 9.39894C51.9763 8.59545 52.8523 7.96577 53.9173 7.50991C54.9184 6.96784 55.6747 6.42017 56.1864 5.86691C56.7176 5.28585 57.2599 4.62971 57.8134 3.8985C58.3668 3.16728 58.752 2.38044 58.969 1.53796C59.0761 1.17789 59.0379 0.89218 58.8544 0.680832C58.6904 0.441679 58.4701 0.297755 58.1934 0.249057C57.9362 0.172556 57.6721 0.194764 57.4009 0.315679C57.1493 0.408794 56.9817 0.633302 56.8983 0.989203C56.6465 1.91092 56.2105 2.75546 55.5903 3.52281C54.966 4.26652 54.0316 4.97961 52.7872 5.66206C51.6916 6.22081 50.8643 6.78097 50.3053 7.34257C49.7464 7.90417 49.1784 8.55266 48.6013 9.28803C48.0478 10.0192 47.4485 11.1119 46.8032 12.5661C46.1537 13.9966 45.5369 15.5432 44.9528 17.2059C44.3881 18.8408 44.0014 20.3103 43.7927 21.6143C43.5798 22.8947 43.474 24.0222 43.4752 24.9968C43.4723 25.9478 43.6967 26.7368 44.1485 27.3639C44.7364 28.2106 45.394 28.6918 46.1211 28.8073C46.8523 28.9464 47.5816 28.8666 48.3087 28.5677C49.0401 28.2926 49.7325 27.8658 50.386 27.2876C51.0395 26.7093 51.5943 26.1241 52.0504 25.5319C52.5301 24.9355 52.9549 24.3732 53.3248 23.845C53.6947 23.3167 54.0152 22.785 54.2864 22.2497C54.5534 21.6909 54.7648 21.0931 54.9206 20.4564C55.1001 19.8155 55.1621 19.0612 55.1066 18.1937C55.8476 18.1118 56.4844 18.0604 57.0168 18.0396C57.5688 17.9911 58.0929 17.923 58.5893 17.8355C59.0814 17.7243 59.5535 17.568 60.0053 17.3665C60.4767 17.1371 60.9508 16.7855 61.4277 16.3114C61.6975 16.0445 61.8762 15.745 61.9638 15.4127C62.0709 15.0526 61.9966 14.7002 61.7408 14.3554C61.5212 14.0773 61.303 13.9452 61.0861 13.959C60.8886 13.9451 60.6801 14.0063 60.4604 14.1425C60.2407 14.2787 60.0294 14.4622 59.8264 14.6929C59.6428 14.8959 59.4648 15.0613 59.2924 15.1892C58.7988 15.5687 58.2135 15.8425 57.5364 16.0106C56.8788 16.1509 55.8882 16.1306 54.5647 15.9497ZM75.9274 13.0968C76.0943 12.7993 76.1569 12.5323 76.1152 12.296C76.0694 12.036 75.9512 11.8497 75.7608 11.737C75.5898 11.5966 75.3743 11.5493 75.1143 11.5951C74.878 11.6368 74.6388 11.8008 74.3969 12.0872C73.6905 12.9185 72.9542 13.7185 72.1881 14.4872C71.4456 15.2518 70.7051 16.0281 69.9668 16.8163C70.0975 16.4521 70.2477 16.0601 70.4174 15.6402C70.5871 15.2204 70.7428 14.7908 70.8847 14.3515C71.0502 13.908 71.1803 13.4708 71.2749 13.0398C71.3931 12.6047 71.4543 12.1918 71.4586 11.8011C71.4517 11.0712 71.3058 10.4511 71.0209 9.94083C70.7318 9.40692 70.3453 9.01203 69.8615 8.75615C69.4014 8.4961 68.8717 8.39454 68.2725 8.45146C67.6733 8.50837 67.0601 8.76271 66.433 9.21447C65.571 9.85388 64.7652 10.6052 64.0157 11.4685C63.2899 12.3276 62.5974 13.1686 61.9383 13.9915C61.9884 13.4466 62.1178 12.9363 62.3264 12.4609C62.5545 11.9576 62.6442 11.43 62.5956 10.8781C62.5776 10.6376 62.4532 10.4158 62.2224 10.2128C62.0111 9.98198 61.7769 9.82832 61.5197 9.75182C61.2625 9.67532 61.0123 9.70726 60.7689 9.84764C60.5451 9.96023 60.3998 10.2417 60.333 10.6922C60.2439 11.2928 60.1055 11.8899 59.9177 12.4835C59.7258 13.0535 59.5735 13.6409 59.4608 14.2456C59.3188 15.0992 59.1394 15.9473 58.9224 16.7898C58.7248 17.6044 58.5412 18.4289 58.3715 19.263C58.0807 20.6546 57.7879 22.0344 57.4929 23.4024C57.198 24.7704 56.9191 26.16 56.6561 27.5711C56.6227 27.7963 56.5545 28.1008 56.4516 28.4845C56.3487 28.8682 56.2457 29.2519 56.1428 29.6356C56.0204 30.0471 55.9195 30.4426 55.8402 30.8222C55.7373 31.2059 55.683 31.5201 55.6775 31.7647C55.6649 32.1081 55.7816 32.3556 56.0277 32.5072C56.2501 32.6629 56.517 32.7255 56.8285 32.695C57.1204 32.6923 57.3957 32.595 57.6543 32.4032C57.9171 32.235 58.0784 31.975 58.1383 31.6233C58.187 31.3466 58.2489 31.0067 58.324 30.6035C58.3991 30.2004 58.4819 29.7715 58.5724 29.3169C58.6433 28.8901 58.7282 28.473 58.827 28.0656C58.9021 27.6625 58.964 27.3226 59.0127 27.0459C59.1435 26.2674 59.2791 25.5854 59.4196 25.0001C59.5796 24.3871 59.7389 23.701 59.8975 22.9419L59.9872 22.4143C60.5572 22.6062 61.0834 22.7572 61.5658 22.8671C62.0441 22.9533 62.514 22.9923 62.9756 22.984C63.4371 22.9758 63.9022 22.9181 64.3707 22.8111C64.8588 22.6764 65.3739 22.488 65.9161 22.2462C66.749 21.8557 67.6513 21.3066 68.6232 20.5991C69.5951 19.8916 70.5448 19.1271 71.4722 18.3055C72.4191 17.4562 73.2889 16.5839 74.0815 15.6887C74.8699 14.7698 75.4852 13.9058 75.9274 13.0968ZM67.4963 11.5128C68.1762 11.2223 68.6398 11.2258 68.8873 11.5234C69.1347 11.8209 69.218 12.2936 69.1373 12.9415C69.0761 13.5616 68.8758 14.2914 68.5364 15.1311C68.1929 15.9472 67.7604 16.7423 67.2389 17.5167C66.7411 18.2868 66.1773 18.9589 65.5474 19.533C64.9411 20.103 64.3189 20.4442 63.6808 20.5567C63.1372 20.6526 62.6082 20.624 62.0938 20.471C61.603 20.3138 61.1199 20.1309 60.6445 19.9223C60.9032 19.3162 61.287 18.5905 61.796 17.7453C62.3244 16.8723 62.9063 16.0264 63.5418 15.2076C64.1773 14.3888 64.8371 13.6388 65.5212 12.9577C66.2053 12.2765 66.8637 11.7949 67.4963 11.5128ZM94.1887 9.98647C94.4349 9.72374 94.5565 9.44639 94.5538 9.15443C94.5705 8.83467 94.501 8.57885 94.3454 8.38697C94.2133 8.19092 94.0249 8.0901 93.7803 8.0845C93.5314 8.05527 93.2742 8.18592 93.0086 8.47646C92.6179 8.88654 92.1931 9.24169 91.7343 9.54193C91.2754 9.84217 90.8103 10.107 90.339 10.3363C89.8635 10.542 89.3859 10.7359 88.9062 10.9179C88.4224 11.0763 87.9622 11.2306 87.5256 11.3807C87.5034 11.1165 87.4833 10.8642 87.4652 10.6237C87.4472 10.3832 87.4271 10.1308 87.4049 9.86665C87.259 9.03942 86.9428 8.35188 86.4563 7.80404C85.9656 7.23256 85.3915 6.80984 84.7339 6.53586C84.1 6.25771 83.416 6.11025 82.6819 6.09346C81.9478 6.07668 81.2603 6.18572 80.6194 6.42059C79.9784 6.65546 79.4097 7.0238 78.9133 7.52563C78.4406 8.02328 78.1346 8.63774 77.9955 9.36901C77.3212 9.8291 76.6871 10.3796 76.0934 11.0204C75.5233 11.6571 75.0366 12.3521 74.6333 13.1056C74.23 13.8591 73.9317 14.655 73.7383 15.4933C73.5644 16.3038 73.5525 17.1345 73.7025 17.9854C73.8567 18.8599 74.1534 19.5752 74.5927 20.1314C75.0514 20.6598 75.5956 21.0512 76.2254 21.3057C76.8552 21.5602 77.5371 21.6959 78.2711 21.7127C79.0247 21.7017 79.781 21.5683 80.5401 21.3126C81.3271 21.0764 82.073 20.6768 82.778 20.1138C83.4788 19.5272 84.1059 18.8683 84.6593 18.1371C85.2364 17.4017 85.7321 16.6197 86.1465 15.7912C86.5609 14.9626 86.885 14.1744 87.1187 13.4264C87.6581 13.3069 88.2212 13.1833 88.8079 13.0555C89.3905 12.904 89.9765 12.7032 90.566 12.453C91.1792 12.1987 91.7937 11.8832 92.4097 11.5065C93.0214 11.1062 93.6145 10.5995 94.1887 9.98647ZM85.1607 11.6515C84.8687 11.6542 84.5511 11.6493 84.2077 11.6367C83.8601 11.6005 83.5125 11.5643 83.165 11.5281C82.8132 11.4683 82.4712 11.3946 82.139 11.3069C81.8262 11.1915 81.5447 11.0462 81.2944 10.871C80.7425 10.5053 80.4625 10.0916 80.4542 9.63003C80.4459 9.16846 80.6545 8.69301 81.08 8.20369C81.7585 8.18154 82.3584 8.19761 82.8797 8.25191C83.4011 8.3062 83.8425 8.45989 84.2039 8.71297C84.5612 8.94242 84.819 9.29906 84.9774 9.7829C85.1317 10.2431 85.1928 10.866 85.1607 11.6515ZM84.5827 13.7639C84.3157 14.3228 83.9764 14.9553 83.5648 15.6615C83.1768 16.3636 82.7172 17.0051 82.1861 17.5862C81.6785 18.1631 81.1029 18.6301 80.4591 18.9873C79.8154 19.3445 79.1084 19.4814 78.3382 19.3979C77.6431 19.3255 77.0745 19.0724 76.6324 18.6385C76.2098 18.1769 75.9972 17.593 75.9945 16.8867C76.0002 15.8134 76.2611 14.8048 76.777 13.8608C77.2887 12.8933 77.9221 12.0627 78.6772 11.369C79.5766 12.1853 80.4816 12.7568 81.3921 13.0836C82.3264 13.4063 83.3899 13.6331 84.5827 13.7639ZM63.1331 40.0073C62.8078 39.821 62.5276 39.8216 62.2926 40.0093C62.0771 40.1691 61.8797 40.3624 61.7003 40.5889C61.482 40.8711 61.1976 41.2625 60.8472 41.7629C60.4968 42.2634 60.1171 42.8055 59.7083 43.3894C59.2953 43.9496 58.849 44.5279 58.3692 45.1243C57.9131 45.7165 57.4466 46.2496 56.9697 46.7236C56.5164 47.1935 56.0624 47.5903 55.6077 47.9142C55.1725 48.2103 54.7714 48.3541 54.4044 48.3457C54.456 47.5324 54.6215 46.6746 54.9011 45.7724C55.1807 44.8701 55.4999 43.9852 55.8587 43.1178C56.2369 42.2225 56.6312 41.3487 57.0415 40.4965C57.4517 39.6444 57.8133 38.8617 58.1262 38.1485C58.3001 37.7523 58.3675 37.3748 58.3287 37.0161C58.2898 36.6574 58.1689 36.3863 57.9659 36.2028C57.7588 35.9956 57.4953 35.8836 57.1756 35.8669C56.8795 35.846 56.5451 35.9537 56.1724 36.19C55.3451 36.7502 54.4761 37.4883 53.5654 38.4044C52.6741 39.2926 51.7932 40.24 50.9227 41.2464C50.0523 42.2529 49.2214 43.2767 48.4302 44.3179C47.6585 45.3313 47.0021 46.2391 46.4612 47.0412C46.5127 46.6422 46.5823 46.2766 46.6699 45.9443C46.7575 45.612 46.8611 45.3013 46.9808 45.0122C47.0962 44.6994 47.2116 44.3866 47.3271 44.0738C47.4661 43.7568 47.599 43.4044 47.7255 43.0165C47.8938 42.4507 48.0879 41.8925 48.3076 41.342C48.5468 40.7637 48.7248 40.184 48.8417 39.6028C48.9405 39.1955 48.912 38.8959 48.7563 38.704C48.5965 38.4885 48.3824 38.38 48.1141 38.3786C47.8652 38.3494 47.5976 38.4209 47.3111 38.5933C47.0206 38.742 46.796 38.9887 46.6374 39.3335C46.3704 39.8924 46.0999 40.5006 45.826 41.1581C45.5715 41.7879 45.3329 42.4392 45.1104 43.1121C44.8879 43.785 44.6889 44.4537 44.5137 45.1182C44.3384 45.7827 44.2062 46.4153 44.1172 47.0159L43.7081 49.4641C43.683 49.7366 43.6309 50.0626 43.5516 50.4421C43.4917 50.7939 43.4576 51.1533 43.4492 51.5203C43.4603 51.8595 43.5186 52.1904 43.6243 52.513C43.7493 52.8077 43.9919 53.0087 44.352 53.1158C44.6092 53.1923 44.8671 53.1346 45.1257 52.9428C45.4038 52.7232 45.6617 52.4583 45.8995 52.1483C46.1609 51.8342 46.3869 51.5263 46.5774 51.2246C46.7637 50.8993 46.9035 50.6553 46.9967 50.4927C47.3763 49.7434 47.8561 48.9398 48.4359 48.0821C49.0353 47.1966 49.6722 46.3166 50.3466 45.4422C51.0404 44.54 51.7524 43.6712 52.4824 42.8358C53.2124 42.0003 53.9077 41.2441 54.5681 40.5671C54.468 40.8285 54.2928 41.2858 54.0424 41.9392C53.7879 42.569 53.5167 43.3114 53.2288 44.1664C52.9645 45.0172 52.7225 45.925 52.5027 46.8898C52.2787 47.831 52.159 48.7416 52.1436 49.6217C52.1171 50.1625 52.2255 50.5699 52.4688 50.8438C52.7357 51.1135 53.0568 51.2762 53.4322 51.3319C53.8312 51.3834 54.2747 51.3418 54.7627 51.207C55.2702 51.0444 55.7533 50.813 56.2122 50.5127C56.4944 50.3167 56.8427 50.0116 57.2571 49.5974C57.6909 49.1553 58.14 48.6618 58.6045 48.1169C59.0884 47.5442 59.5778 46.9339 60.0729 46.2861C60.5679 45.6383 61.0198 45.0225 61.4287 44.4386C61.8569 43.8269 62.2324 43.2611 62.555 42.7412C62.8735 42.1977 63.114 41.7653 63.2768 41.4442C63.4047 41.2023 63.4812 40.9451 63.5063 40.6726C63.555 40.396 63.4306 40.1742 63.1331 40.0073ZM81.7036 37.5736C81.9497 37.3109 82.0714 37.0335 82.0686 36.7416C82.0854 36.4218 82.0159 36.166 81.8602 35.9741C81.7282 35.7781 81.5398 35.6772 81.2951 35.6716C81.0462 35.6424 80.789 35.7731 80.5234 36.0636C80.1327 36.4737 79.7079 36.8288 79.2491 37.1291C78.7903 37.4293 78.3252 37.6941 77.8538 37.9234C77.3783 38.1291 76.9007 38.323 76.4211 38.5051C75.9372 38.6635 75.477 38.8177 75.0405 38.9678C75.0182 38.7037 74.9981 38.4513 74.9801 38.2108C74.962 37.9703 74.9419 37.7179 74.9197 37.4538C74.7738 36.6266 74.4577 35.939 73.9711 35.3912C73.4804 34.8197 72.9063 34.397 72.2487 34.123C71.6148 33.8449 70.9308 33.6974 70.1968 33.6806C69.4627 33.6638 68.7752 33.7729 68.1342 34.0077C67.4933 34.2426 66.9246 34.6109 66.4282 35.1128C65.9554 35.6104 65.6495 36.2249 65.5103 36.9561C64.836 37.4162 64.2019 37.9667 63.6082 38.6075C63.0381 39.2442 62.5514 39.9393 62.1481 40.6928C61.7448 41.4462 61.4465 42.2421 61.2531 43.0804C61.0792 43.891 61.0673 44.7216 61.2173 45.5725C61.3715 46.447 61.6683 47.1624 62.1075 47.7185C62.5662 48.2469 63.1105 48.6384 63.7402 48.8929C64.37 49.1474 65.0519 49.283 65.786 49.2998C66.5395 49.2888 67.2959 49.1554 68.055 48.8997C68.8419 48.6635 69.5879 48.2639 70.2928 47.7009C70.9936 47.1143 71.6207 46.4554 72.1741 45.7242C72.7512 44.9888 73.247 44.2069 73.6614 43.3783C74.0758 42.5498 74.3998 41.7615 74.6335 41.0136C75.173 40.8941 75.736 40.7704 76.3228 40.6426C76.9053 40.4911 77.4913 40.2903 78.0809 40.0402C78.694 39.7858 79.3086 39.4703 79.9245 39.0936C80.5363 38.6933 81.1293 38.1866 81.7036 37.5736ZM72.6755 39.2386C72.3836 39.2413 72.0659 39.2364 71.7225 39.2239C71.3749 39.1877 71.0274 39.1515 70.6798 39.1153C70.3281 39.0555 69.9861 38.9817 69.6538 38.8941C69.341 38.7786 69.0595 38.6333 68.8093 38.4581C68.2574 38.0924 67.9773 37.6787 67.969 37.2172C67.9607 36.7556 68.1694 36.2801 68.5949 35.7908C69.2733 35.7687 69.8732 35.7847 70.3946 35.839C70.9159 35.8933 71.3573 36.047 71.7187 36.3001C72.076 36.5296 72.3339 36.8862 72.4923 37.37C72.6465 37.8302 72.7076 38.4531 72.6755 39.2386ZM72.0976 41.3511C71.8306 41.9099 71.4913 42.5424 71.0796 43.2486C70.6917 43.9507 70.2321 44.5922 69.7009 45.1733C69.1934 45.7502 68.6177 46.2173 67.974 46.5745C67.3302 46.9317 66.6232 47.0685 65.853 46.985C65.1579 46.9126 64.5893 46.6595 64.1473 46.2257C63.7247 45.764 63.5121 45.1801 63.5094 44.4738C63.5151 43.4005 63.7759 42.3919 64.2918 41.448C64.8036 40.4804 65.437 39.6498 66.192 38.9562C67.0914 39.7724 67.9964 40.3439 68.907 40.6708C69.8412 40.9934 70.9047 41.2202 72.0976 41.3511ZM78.8203 45.7952C78.9968 46.1052 79.2943 46.2721 79.7128 46.2958C80.262 46.3696 80.8528 46.2654 81.4855 45.9832C82.1417 45.6969 82.8028 45.3001 83.4689 44.7927C84.1543 44.2576 84.8002 43.705 85.4064 43.1351C86.0127 42.5652 86.5522 42.0314 87.025 41.5337C87.5172 41.0083 87.8099 40.6642 87.9031 40.5016C87.8294 40.6364 87.7215 41.1306 87.5796 41.9842C87.4224 42.8893 87.2805 43.7429 87.1538 44.5451C87.0787 44.9483 87.1211 45.2576 87.2809 45.4731C87.4644 45.6845 87.6806 45.8048 87.9294 45.834C88.1783 45.8632 88.4341 45.7937 88.6969 45.6256C88.9875 45.4768 89.2121 45.2301 89.3706 44.8853C89.5291 44.5406 89.6634 44.127 89.7733 43.6446C89.9068 43.158 90.0264 42.6617 90.1322 42.1556C90.2379 41.6496 90.3339 41.1574 90.4202 40.6792C90.5301 40.1968 90.6622 39.7713 90.8166 39.4029C91.1863 40.1176 91.5873 40.8024 92.0196 41.4573C92.4755 42.108 92.9856 42.6516 93.55 43.0883C94.1144 43.5249 94.7504 43.8149 95.4581 43.9582C96.1657 44.1015 96.9679 44.0209 97.8647 43.7166C98.6906 43.4247 99.6228 42.907 100.661 42.1633C101.696 41.396 102.704 40.5481 103.686 39.6195C104.687 38.6632 105.613 37.6957 106.464 36.717C107.311 35.7147 107.961 34.8445 108.416 34.1063C108.587 33.8325 108.679 33.5238 108.692 33.1804C108.728 32.8329 108.626 32.534 108.387 32.2837C108.12 32.0139 107.894 31.9075 107.71 31.9645C107.544 31.9937 107.334 32.116 107.08 32.3315C106.7 32.6665 106.296 33.1398 105.868 33.7515C105.459 34.3353 105.071 34.8302 104.704 35.2361C104.138 35.8964 103.556 36.5352 102.958 37.1524C102.38 37.7418 101.75 38.3159 101.069 38.8747C100.07 39.7087 99.1588 40.3446 98.3343 40.7825C97.5293 41.1925 96.7792 41.3613 96.0841 41.2889C95.3848 41.1929 94.7363 40.832 94.1385 40.2063C93.5603 39.5528 93.0105 38.5774 92.4894 37.2802C93.3973 36.9008 94.4324 36.4136 95.5948 35.8188C96.7766 35.1961 97.9223 34.5067 99.0318 33.7505C100.161 32.9665 101.183 32.1283 102.098 31.2359C103.009 30.3198 103.673 29.3864 104.09 28.4355C104.36 27.7543 104.197 27.2468 103.602 26.913C103.277 26.7267 102.99 26.6919 102.743 26.8086C102.515 26.8976 102.294 27.095 102.08 27.4008C101.943 27.5954 101.809 27.8019 101.677 28.0201C101.564 28.2106 101.428 28.4052 101.268 28.604C100.516 29.5896 99.6106 30.4681 98.5525 31.2396C97.4903 31.9874 96.4273 32.6622 95.3636 33.2641C94.8965 33.5171 94.4251 33.7464 93.9496 33.9521C93.4741 34.1578 93.0104 34.3614 92.5586 34.5629C92.9689 33.2964 93.35 32.2788 93.7018 31.51C94.0773 30.7371 94.3151 30.2199 94.4152 29.9586C94.5738 29.6138 94.5947 29.3177 94.4779 29.0702C94.3806 28.7949 94.2034 28.619 93.9462 28.5425C93.6848 28.4424 93.4026 28.4312 93.0995 28.509C92.7964 28.5868 92.5239 28.7689 92.282 29.0553C91.9858 29.4487 91.6611 30.1639 91.3078 31.201C90.9656 32.1631 90.5679 33.2933 90.1144 34.5918C89.7531 33.9244 89.3701 33.273 88.9656 32.6376C88.5097 31.9869 87.9996 31.4432 87.4352 31.0066C86.8708 30.5699 86.2348 30.28 85.5271 30.1367C84.8195 29.9934 84.3933 30.2025 84.2487 30.7642C84.1235 31.2981 84.6697 32.1156 85.8875 33.2169C87.1052 34.3182 87.9747 35.5174 88.4958 36.8146C87.8868 37.5069 87.4043 38.0184 87.0483 38.3493C86.6882 38.6565 86.1584 39.1764 85.459 39.909C84.7596 40.6415 83.9928 41.3373 83.1585 41.9961C82.5592 42.4674 81.9009 42.949 81.1834 43.4411C80.9512 43.5064 80.7267 43.546 80.5098 43.5598C80.2833 42.9662 80.2445 42.1932 80.3934 41.2408C80.5659 40.2843 80.3025 39.7581 79.6032 39.6621C78.8997 39.5424 78.4499 39.9629 78.2538 40.9236C78.0534 41.8606 77.9629 42.7295 77.9823 43.5303C78.0016 44.3311 78.1871 44.9686 78.5388 45.4427C78.6347 45.572 78.7286 45.6895 78.8203 45.7952ZM124.626 31.4674C124.812 31.1421 124.869 30.8397 124.795 30.5603C124.722 30.2808 124.576 30.075 124.357 29.9429C124.159 29.783 123.917 29.7281 123.634 29.7781C123.37 29.8003 123.128 29.9525 122.91 30.2347C122.692 30.5169 122.491 30.8325 122.309 31.1814C122.123 31.5067 121.946 31.8181 121.779 32.1156C121.45 32.7342 121.155 33.2736 120.895 33.7338C120.654 34.1661 120.386 34.579 120.09 34.9724C119.794 35.3658 119.448 35.7557 119.053 36.1422C118.678 36.5008 118.21 36.8879 117.65 37.3035L116.897 36.5589C116.989 36.2503 117.094 35.8784 117.212 35.4433C117.35 34.9803 117.487 34.5174 117.625 34.0545C117.786 33.5873 117.938 33.1341 118.08 32.6948C118.245 32.2513 118.386 31.8732 118.501 31.5604C118.651 31.1684 118.652 30.8271 118.503 30.5365C118.378 30.2417 118.197 30.0422 117.959 29.9379C117.717 29.8099 117.457 29.7828 117.177 29.8564C116.898 29.9301 116.669 30.1532 116.491 30.5258C115.807 32.0355 114.994 33.507 114.053 34.9403C113.107 36.3499 112.017 37.4925 110.782 38.3682C110.523 38.5601 110.227 38.7463 109.894 38.927C109.579 39.0799 109.269 39.1834 108.961 39.2376C108.674 39.264 108.409 39.2132 108.167 39.0853C107.921 38.9337 107.748 38.6473 107.65 38.226C107.523 37.7853 107.509 37.2882 107.606 36.7349C107.723 36.1538 107.892 35.661 108.113 35.2564C108.714 34.1026 109.345 33.053 110.007 32.1077C110.669 31.1624 111.38 30.3547 112.139 29.6847C112.918 28.9869 113.751 28.4622 114.639 28.1106C115.547 27.7312 116.536 27.5325 117.605 27.5146C117.921 27.5077 118.202 27.4458 118.45 27.3291C118.693 27.1887 118.845 26.9426 118.904 26.5909C118.941 26.2433 118.851 25.9423 118.636 25.6879C118.416 25.4098 118.158 25.2603 117.862 25.2394C116.448 25.0988 115.087 25.3266 113.779 25.9228C112.494 26.5149 111.31 27.3329 110.227 28.3769C109.163 29.393 108.247 30.5538 107.478 31.8592C106.704 33.1409 106.134 34.399 105.767 35.6336C105.396 36.8444 105.252 37.9664 105.337 38.9994C105.441 40.0046 105.839 40.7387 106.53 41.2017C107.169 41.6495 107.777 41.92 108.354 42.0132C108.959 42.1259 109.605 41.9877 110.292 41.5985C111.25 41.0884 112.104 40.4747 112.855 39.7574C113.625 39.0123 114.379 38.2457 115.118 37.4575C115.171 37.6188 115.246 37.8371 115.343 38.1124C115.44 38.3877 115.561 38.6588 115.706 38.9257C115.85 39.1927 116.014 39.4318 116.198 39.6432C116.377 39.8309 116.577 39.9296 116.798 39.9394C117.32 39.9937 117.855 39.8506 118.404 39.51C118.953 39.1695 119.476 38.7483 119.973 38.2465C120.469 37.7447 120.912 37.2157 121.301 36.6597C121.714 36.0994 122.045 35.6268 122.294 35.2417C122.671 34.6147 123.06 33.9857 123.46 33.3546C123.884 32.7193 124.273 32.0902 124.626 31.4674ZM122.442 38.1035C122.619 38.4136 122.916 38.5804 123.334 38.6041C123.884 38.6779 124.475 38.5737 125.107 38.2916C125.763 38.0053 126.425 37.6084 127.091 37.1011C127.776 36.5659 128.422 36.0133 129.028 35.4434C129.634 34.8735 130.174 34.3397 130.647 33.842C131.139 33.3166 131.508 32.9225 131.754 32.6598C131.712 33.252 131.679 33.8915 131.654 34.5783C131.625 35.2415 131.792 35.8456 132.156 36.3906C132.461 36.8731 132.83 37.1735 133.265 37.2917C133.696 37.3863 134.144 37.3683 134.608 37.2377C135.069 37.0834 135.54 36.8541 136.023 36.5497C136.524 36.2175 136.987 35.8679 137.409 35.5009C137.852 35.1061 138.247 34.7197 138.594 34.3416C138.965 33.9593 139.25 33.641 139.449 33.3866C140.05 32.647 140.672 31.8915 141.316 31.12C141.956 30.3248 142.522 29.5303 143.016 28.7366C143.202 28.4113 143.278 28.0811 143.243 27.746C143.209 27.4109 143.1 27.1377 142.916 26.9264C142.733 26.715 142.519 26.6066 142.274 26.601C142.025 26.5717 141.78 26.7003 141.538 26.9867C141.304 27.3203 141.073 27.6658 140.843 28.023C140.637 28.3761 140.406 28.7216 140.149 29.0594C139.813 29.5084 139.394 30.0332 138.891 30.6337C138.387 31.2343 137.849 31.841 137.274 32.4541C136.72 33.0393 136.133 33.5814 135.514 34.0805C134.919 34.5753 134.374 34.9395 133.879 35.173C133.893 34.147 134.004 33.1891 134.213 32.2993C134.417 31.3859 134.675 30.4997 134.987 29.6405C135.322 28.7772 135.683 27.9215 136.07 27.0735C136.456 26.2255 136.849 25.3399 137.246 24.4168C137.396 24.0248 137.423 23.6911 137.326 23.4158C137.252 23.1364 137.094 22.9327 136.852 22.8048C136.634 22.6726 136.373 22.6455 136.07 22.7233C135.787 22.7733 135.528 22.9651 135.294 23.2988C134.881 23.859 134.498 24.4505 134.145 25.0733C133.811 25.6683 133.452 26.2557 133.067 26.8353C132.363 27.9586 131.698 28.9533 131.071 29.8193C130.443 30.6854 129.78 31.4847 129.081 32.2173C128.381 32.9499 127.614 33.6456 126.78 34.3045C126.181 34.7757 125.523 35.2573 124.805 35.7494C124.573 35.8147 124.348 35.8543 124.132 35.8682C123.905 35.2745 123.866 34.5015 124.015 33.5492C124.188 32.5927 123.924 32.0664 123.225 31.9704C122.521 31.8507 122.072 32.2712 121.875 33.2319C121.675 34.1689 121.585 35.0378 121.604 35.8386C121.623 36.6394 121.809 37.2769 122.161 37.751C122.256 37.8803 122.35 37.9978 122.442 38.1035ZM161.678 23.472C161.924 23.2092 162.046 22.9319 162.043 22.6399C162.06 22.3202 161.99 22.0643 161.835 21.8725C161.703 21.6764 161.514 21.5756 161.269 21.57C161.021 21.5408 160.763 21.6714 160.498 21.962C160.107 22.372 159.682 22.7272 159.223 23.0274C158.765 23.3277 158.3 23.5924 157.828 23.8218C157.353 24.0275 156.875 24.2214 156.395 24.4034C155.912 24.5618 155.451 24.7161 155.015 24.8662C154.993 24.602 154.973 24.3497 154.954 24.1092C154.936 23.8686 154.916 23.6163 154.894 23.3521C154.748 22.5249 154.432 21.8374 153.946 21.2895C153.455 20.7181 152.881 20.2953 152.223 20.0214C151.589 19.7432 150.905 19.5957 150.171 19.579C149.437 19.5622 148.75 19.6712 148.109 19.9061C147.468 20.141 146.899 20.5093 146.403 21.0111C145.93 21.5088 145.624 22.1232 145.485 22.8545C144.81 23.3146 144.176 23.8651 143.583 24.5059C143.012 25.1426 142.526 25.8376 142.123 26.5911C141.719 27.3446 141.421 28.1405 141.228 28.9788C141.054 29.7893 141.042 30.62 141.192 31.4709C141.346 32.3454 141.643 33.0607 142.082 33.6169C142.541 34.1453 143.085 34.5367 143.715 34.7912C144.344 35.0457 145.026 35.1814 145.76 35.1982C146.514 35.1872 147.27 35.0538 148.029 34.7981C148.816 34.5618 149.562 34.1622 150.267 33.5993C150.968 33.0127 151.595 32.3538 152.149 31.6226C152.726 30.8872 153.221 30.1052 153.636 29.2767C154.05 28.4481 154.374 27.6599 154.608 26.9119C155.147 26.7924 155.71 26.6688 156.297 26.541C156.88 26.3895 157.466 26.1887 158.055 25.9385C158.668 25.6842 159.283 25.3687 159.899 24.992C160.511 24.5917 161.104 24.085 161.678 23.472ZM152.65 25.137C152.358 25.1397 152.04 25.1348 151.697 25.1222C151.349 25.086 151.002 25.0498 150.654 25.0136C150.302 24.9538 149.96 24.8801 149.628 24.7924C149.315 24.677 149.034 24.5317 148.784 24.3565C148.232 23.9908 147.952 23.5771 147.943 23.1155C147.935 22.654 148.144 22.1785 148.569 21.6892C149.248 21.667 149.848 21.6831 150.369 21.7374C150.89 21.7917 151.332 21.9454 151.693 22.1985C152.05 22.4279 152.308 22.7846 152.467 23.2684C152.621 23.7286 152.682 24.3515 152.65 25.137ZM152.072 27.2494C151.805 27.8083 151.466 28.4408 151.054 29.147C150.666 29.849 150.206 30.4906 149.675 31.0717C149.168 31.6486 148.592 32.1156 147.948 32.4728C147.305 32.83 146.598 32.9669 145.827 32.8834C145.132 32.811 144.564 32.5579 144.122 32.124C143.699 31.6624 143.486 31.0784 143.484 30.3722C143.489 29.2989 143.75 28.2903 144.266 27.3463C144.778 26.3788 145.411 25.5482 146.166 24.8545C147.066 25.6707 147.971 26.2423 148.881 26.5691C149.816 26.8918 150.879 27.1186 152.072 27.2494ZM176.956 19.4254C176.737 19.1473 176.518 19.0152 176.302 19.0291C176.104 19.0152 175.896 19.0763 175.676 19.2125C175.456 19.3488 175.245 19.5322 175.042 19.763C174.858 19.966 174.68 20.1314 174.508 20.2593C174.014 20.6387 173.561 20.9014 173.148 21.0474C172.731 21.1697 172.315 21.2308 171.901 21.2307C171.506 21.2028 171.081 21.1437 170.627 21.0533C170.192 20.935 169.707 20.8133 169.173 20.6881C167.853 20.3849 167.05 20.4654 166.767 20.9297C166.502 21.3662 166.89 21.9071 167.93 22.5523C168.387 22.9347 168.493 23.4644 168.247 24.1415C168.024 24.8143 167.813 25.4121 167.613 25.9348C167.436 26.4534 167.198 26.9705 166.899 27.4863C166.6 28.002 166.273 28.4983 165.919 28.9751C165.564 29.452 165.142 29.8919 164.653 30.295C164.183 30.6703 163.722 30.9588 163.27 31.1603C162.818 31.3618 162.407 31.4466 162.035 31.4145C161.664 31.3825 161.398 31.1858 161.237 30.8243C161.044 30.4197 160.968 29.9212 161.01 29.329C161.047 28.7131 161.142 28.075 161.294 27.4146C161.469 26.7501 161.656 26.0835 161.855 25.4148C162.073 24.7183 162.278 24.085 162.47 23.515C162.869 23.1522 163.483 22.5566 164.312 21.7281C165.164 20.8954 166.079 19.93 167.055 18.8318C168.055 17.7294 169.044 16.568 170.023 15.3475C170.998 14.1033 171.833 12.896 172.528 11.7254C173.247 10.5507 173.74 9.47682 174.007 8.50366C174.293 7.50269 174.215 6.71231 173.772 6.1325C173.516 5.78767 173.204 5.53807 172.835 5.3837C172.491 5.22516 172.123 5.14378 171.732 5.13955C171.342 5.13533 170.949 5.19227 170.556 5.31039C170.182 5.40071 169.828 5.53621 169.494 5.7169C168.674 6.17836 167.966 6.86367 167.371 7.77284C166.776 8.682 166.283 9.54877 165.892 10.3732C165.034 12.2791 164.134 14.1559 163.193 16.0034C162.275 17.8468 161.441 19.7486 160.69 21.7088C160.435 22.3386 160.137 23.1345 159.795 24.0965C159.476 25.0543 159.213 26.0511 159.006 27.0869C158.795 28.099 158.689 29.0923 158.691 30.0669C158.688 31.0178 158.912 31.8069 159.364 32.4339C159.952 33.2807 160.609 33.7618 161.337 33.8773C162.068 34.0165 162.797 33.9366 163.524 33.6378C164.255 33.3626 164.948 32.9359 165.601 32.3577C166.255 31.7794 166.81 31.1942 167.266 30.602C167.746 30.0056 168.17 29.4433 168.54 28.915C168.91 28.3868 169.231 27.855 169.502 27.3198C169.769 26.761 169.98 26.1632 170.136 25.5264C170.316 24.8855 170.439 24.1327 170.506 23.268C171.124 23.1833 171.7 23.1305 172.232 23.1097C172.784 23.0611 173.308 22.9931 173.805 22.9056C174.297 22.7944 174.769 22.6381 175.221 22.4365C175.692 22.2072 176.166 21.8555 176.643 21.3815C176.913 21.1146 177.092 20.815 177.179 20.4828C177.286 20.1227 177.212 19.7703 176.956 19.4254ZM171.121 7.47723C171.634 7.48425 171.849 7.7387 171.767 8.24058C171.709 8.7383 171.456 9.37988 171.01 10.1653C170.564 10.9508 169.986 11.8203 169.277 12.7739C168.587 13.6998 167.881 14.6041 167.16 15.4868C166.461 16.3654 165.808 17.1508 165.199 17.843C164.59 18.5353 164.15 19.0149 163.881 19.2818C164.046 18.8383 164.307 18.244 164.663 17.4989C165.015 16.7301 165.408 15.9175 165.842 15.0612C166.295 14.177 166.772 13.2887 167.273 12.3962C167.773 11.5037 168.265 10.6981 168.747 9.9794C169.226 9.23706 169.668 8.63513 170.074 8.17361C170.504 7.70793 170.853 7.4758 171.121 7.47723ZM192.794 19.4475C192.981 19.1222 193.037 18.8198 192.963 18.5404C192.89 18.2609 192.744 18.0551 192.526 17.923C192.327 17.7631 192.086 17.7082 191.802 17.7582C191.538 17.7804 191.297 17.9326 191.078 18.2148C190.86 18.497 190.66 18.8126 190.477 19.1615C190.291 19.4868 190.115 19.7982 189.948 20.0957C189.618 20.7143 189.323 21.2537 189.063 21.7139C188.823 22.1462 188.554 22.5591 188.258 22.9525C187.962 23.3459 187.616 23.7358 187.221 24.1223C186.846 24.4809 186.378 24.868 185.818 25.2836L185.065 24.539C185.157 24.2304 185.262 23.8585 185.38 23.4234C185.518 22.9604 185.656 22.4975 185.793 22.0346C185.955 21.5674 186.106 21.1142 186.248 20.6749C186.414 20.2314 186.554 19.8533 186.669 19.5405C186.82 19.1485 186.82 18.8072 186.672 18.5166C186.547 18.2218 186.365 18.0223 186.127 17.918C185.886 17.79 185.625 17.7629 185.345 17.8365C185.066 17.9102 184.837 18.1333 184.659 18.5059C183.975 20.0156 183.162 21.4871 182.221 22.9204C181.275 24.33 180.185 25.4726 178.95 26.3483C178.692 26.5402 178.396 26.7264 178.062 26.9071C177.748 27.06 177.437 27.1635 177.13 27.2177C176.842 27.2441 176.577 27.1933 176.335 27.0654C176.089 26.9138 175.917 26.6274 175.818 26.2061C175.692 25.7654 175.677 25.2683 175.774 24.715C175.891 24.1339 176.06 23.6411 176.281 23.2365C176.882 22.0827 177.514 21.0331 178.175 20.0878C178.837 19.1425 179.548 18.3348 180.307 17.6648C181.086 16.967 181.919 16.4423 182.808 16.0907C183.716 15.7113 184.704 15.5126 185.773 15.4947C186.089 15.4878 186.37 15.4259 186.618 15.3092C186.861 15.1688 187.013 14.9227 187.073 14.571C187.109 14.2234 187.019 13.9224 186.804 13.668C186.584 13.3899 186.326 13.2404 186.03 13.2195C184.616 13.0789 183.255 13.3067 181.947 13.9029C180.662 14.495 179.478 15.313 178.395 16.357C177.331 17.3731 176.415 18.5339 175.646 19.8393C174.873 21.121 174.302 22.3791 173.935 23.6137C173.564 24.8245 173.421 25.9465 173.505 26.9795C173.609 27.9847 174.007 28.7188 174.698 29.1818C175.337 29.6296 175.945 29.9001 176.522 29.9933C177.127 30.106 177.773 29.9678 178.46 29.5786C179.418 29.0685 180.272 28.4548 181.023 27.7375C181.793 26.9924 182.548 26.2258 183.286 25.4376C183.339 25.5989 183.414 25.8172 183.511 26.0925C183.608 26.3678 183.729 26.6389 183.874 26.9058C184.019 27.1728 184.183 27.4119 184.366 27.6233C184.545 27.811 184.746 27.9097 184.967 27.9195C185.488 27.9738 186.023 27.8307 186.572 27.4901C187.122 27.1496 187.644 26.7284 188.141 26.2266C188.637 25.7248 189.08 25.1958 189.469 24.6398C189.882 24.0795 190.213 23.6069 190.462 23.2218C190.839 22.5948 191.228 21.9658 191.628 21.3347C192.052 20.6994 192.441 20.0703 192.794 19.4475ZM217.714 14.359C217.795 14.1254 217.767 13.8988 217.631 13.6791C217.518 13.4552 217.357 13.3009 217.147 13.2161C216.815 13.1284 216.507 13.1826 216.225 13.3786C215.962 13.5468 215.712 13.7859 215.474 14.0959C215.256 14.3781 215.068 14.6916 214.909 15.0363C214.746 15.3575 214.607 15.6014 214.49 15.7682C214.323 16.0657 213.99 16.5266 213.491 17.1507C213.015 17.7707 212.492 18.3991 211.922 19.0358C211.352 19.6724 210.783 20.2479 210.216 20.7622C209.645 21.2529 209.203 21.5136 208.892 21.5441C208.669 20.974 208.621 20.2879 208.748 19.4858C208.871 18.66 209.066 17.8335 209.334 17.0063C209.622 16.1513 209.919 15.3436 210.223 14.5831C210.551 13.8185 210.818 13.1867 211.022 12.6876C211.177 12.3192 211.282 11.9473 211.337 11.5719C211.389 11.1729 211.366 10.8358 211.269 10.5605C211.191 10.2574 211.009 10.0579 210.724 9.9619C210.435 9.8423 210.013 9.86796 209.458 10.0389C209.183 10.1362 208.815 10.3961 208.353 10.8187C207.911 11.2135 207.426 11.7132 206.899 12.3179C206.368 12.899 205.824 13.5433 205.266 14.2509C204.704 14.9348 204.176 15.6007 203.681 16.2485C203.205 16.8685 202.771 17.4447 202.377 17.9771C202.007 18.5054 201.747 18.8925 201.595 19.1386C201.599 18.7479 201.665 18.2245 201.793 17.5683C201.945 16.9079 202.093 16.2239 202.236 15.5163C202.375 14.785 202.473 14.0975 202.53 13.4538C202.607 12.7824 202.578 12.2756 202.445 11.9336C202.21 11.2926 201.868 11.0117 201.419 11.0909C200.994 11.1659 200.483 11.3779 199.886 11.7267C199.49 11.9672 199.016 12.3919 198.466 13.0007C197.915 13.6096 197.349 14.2699 196.768 14.9817C196.206 15.6656 195.668 16.3454 195.154 17.021C194.663 17.6924 194.267 18.213 193.967 18.5828C193.997 18.4799 194.109 18.1435 194.301 17.5735C194.488 16.9799 194.656 16.3411 194.803 15.6571C194.974 14.9689 195.067 14.319 195.081 13.7072C195.119 13.0913 195.001 12.6979 194.727 12.5268C194.322 12.3057 193.914 12.3411 193.503 12.633C193.115 12.9208 192.881 13.2544 192.802 13.6339C192.714 13.9662 192.652 14.3061 192.616 14.6537C192.576 14.9776 192.523 15.3036 192.459 15.6317C192.309 16.4381 192.133 17.2368 191.931 18.0278C191.73 18.8188 191.502 19.6022 191.249 20.378C191.02 21.1495 190.789 21.9823 190.556 22.8762C190.348 23.766 190.204 24.6078 190.124 25.4016C190.122 25.5239 190.125 25.6817 190.135 25.875C190.144 26.0682 190.18 26.2691 190.241 26.4777C190.302 26.6862 190.383 26.867 190.483 27.0199C190.583 27.1729 190.718 27.2466 190.887 27.2411C191.306 27.2647 191.679 27.1014 192.007 26.7511C192.336 26.4008 192.565 26.0436 192.696 25.6793C193.035 24.8396 193.359 24.0514 193.668 23.3146C193.977 22.5778 194.366 21.8146 194.836 21.025C195.174 20.4536 195.565 19.9094 196.01 19.3922C196.451 18.8515 196.908 18.3323 197.381 17.8346C197.849 17.3133 198.32 16.8038 198.793 16.3062C199.261 15.7849 199.706 15.2678 200.128 14.7548C200.068 15.5209 199.913 16.3036 199.664 17.1029C199.439 17.8982 199.334 18.6843 199.349 19.4615C199.345 19.8522 199.315 20.2352 199.259 20.6106C199.204 20.9859 199.136 21.3634 199.057 21.7429C198.997 22.0947 198.951 22.4561 198.919 22.8273C198.883 23.1749 198.896 23.5259 198.959 23.8805C199.002 24.2628 199.138 24.5555 199.369 24.7585C199.6 24.9615 199.854 25.0874 200.13 25.1361C200.407 25.1848 200.669 25.1507 200.917 25.034C201.184 24.8894 201.363 24.6628 201.455 24.3542C201.782 23.4436 202.133 22.6748 202.51 22.0479C202.911 21.4167 203.305 20.7502 203.693 20.0481C204.291 19.0166 204.984 18.0414 205.773 17.1226C206.58 16.1759 207.351 15.2237 208.084 14.2659C207.942 14.7052 207.787 15.2077 207.618 15.7735C207.446 16.3157 207.278 16.8816 207.113 17.471C206.945 18.0368 206.789 18.6006 206.644 19.1622C206.523 19.7197 206.429 20.2237 206.362 20.6741C206.252 21.5708 206.263 22.3244 206.395 22.9347C206.527 23.5451 206.786 23.9747 207.171 24.2236C207.556 24.4725 208.052 24.5192 208.658 24.3636C209.268 24.2316 209.995 23.8598 210.837 23.2482C211.292 22.9243 211.865 22.3724 212.556 21.5926C213.271 20.8086 213.977 19.9773 214.675 19.0987C215.369 18.1965 215.994 17.3186 216.55 16.4651C217.126 15.5837 217.514 14.8817 217.714 14.359ZM220.443 17.8623C220.404 17.9179 220.375 17.9596 220.356 17.9874C219.738 18.6324 219.087 19.2225 218.401 19.7576C217.735 20.265 217.062 20.6639 216.382 20.9544C216.434 20.1411 216.595 19.2597 216.867 18.3101C217.656 17.123 218.508 16.2173 219.422 15.5932C220.355 14.9413 221.306 14.5299 222.275 14.359C222.187 15.1056 221.863 15.8938 221.302 16.7238C221.054 17.1088 220.767 17.4883 220.443 17.8623ZM223.79 16.9431C223.877 16.8791 223.982 16.7874 224.107 16.6678C225.035 15.8463 225.895 14.9879 226.687 14.0927C227.476 13.1738 228.091 12.3099 228.533 11.5008C228.7 11.2033 228.763 10.9363 228.721 10.7C228.675 10.44 228.557 10.2537 228.367 10.1411C228.196 10.0006 227.98 9.95331 227.72 9.99915C227.484 10.0408 227.245 10.2048 227.003 10.4912C226.296 11.3225 225.572 12.1204 224.829 12.885C224.603 13.1199 224.374 13.343 224.143 13.5543C224.014 13.2359 223.832 12.9634 223.597 12.7367C223.191 12.3696 222.737 12.1451 222.235 12.063C221.56 11.9628 220.846 12.0642 220.096 12.3671C219.801 12.4922 219.498 12.643 219.188 12.8195C219.537 12.1731 219.912 11.5343 220.313 10.9032C221.001 9.83138 221.55 8.86939 221.961 8.0172C222.286 7.37493 222.159 6.86121 221.579 6.47602C221.278 6.28551 220.989 6.23889 220.714 6.33617C220.458 6.40565 220.235 6.59122 220.044 6.89289C219.553 7.56433 218.984 8.48114 218.336 9.64333C217.684 10.7819 216.966 12.1025 216.183 13.6053C216.02 13.9265 215.76 14.5208 215.401 15.3883C215.066 16.2516 214.804 16.9801 214.617 17.5737C214.448 18.1395 214.308 18.7248 214.195 19.3295C214.106 19.9301 214.107 20.4904 214.199 21.0104C214.263 21.5109 214.45 21.953 214.762 22.3368C215.069 22.6969 215.525 22.9333 216.13 23.046C216.711 23.1629 217.337 23.0525 218.009 22.7147C218.708 22.3964 219.391 21.9836 220.057 21.4763C220.742 20.9411 221.368 20.3434 221.934 19.6831C222.519 18.9949 223.045 18.2443 223.511 17.431C223.604 17.2684 223.697 17.1057 223.79 16.9431ZM171.331 48.8737C171.489 48.5289 171.555 48.2126 171.529 47.9249C171.503 47.6371 171.404 47.4229 171.233 47.2825C171.058 47.1184 170.84 47.0593 170.58 47.1051C170.316 47.1274 170.039 47.2858 169.75 47.5805C169.403 47.9586 169.063 48.384 168.732 48.8566C168.425 49.3251 168.102 49.7721 167.762 50.1974C167.123 50.9926 166.443 51.7704 165.725 52.5307C165.025 53.2633 164.312 53.9862 163.585 54.6993C163.825 53.8526 164.083 52.9664 164.359 52.0405C164.654 51.0868 164.882 50.1692 165.043 49.2878C165.118 48.8846 165.095 48.5475 164.974 48.2764C164.853 48.0053 164.676 47.8294 164.443 47.7487C164.233 47.6639 163.992 47.6819 163.721 47.8028C163.469 47.8959 163.227 48.1093 162.993 48.4429C162.565 49.0546 162.139 49.6781 161.715 50.3134C161.31 50.9209 160.88 51.5207 160.423 52.1129C159.991 52.701 159.517 53.2598 159.001 53.7894C158.485 54.319 157.898 54.7882 157.239 55.1968C157.019 55.333 156.742 55.4915 156.409 55.6722C156.094 55.8251 155.772 55.9307 155.441 55.989C155.134 56.0432 154.847 56.0084 154.582 55.8846C154.34 55.7567 154.179 55.4682 154.1 55.0191C154.046 54.7119 154.061 54.3803 154.144 54.0244C154.227 53.6685 154.348 53.3181 154.507 52.9734C154.661 52.605 154.834 52.2699 155.024 51.9683C155.234 51.6388 155.415 51.351 155.567 51.105C155.975 50.5211 156.412 49.9567 156.877 49.4118C157.36 48.8391 157.878 48.3213 158.43 47.8584C158.978 47.3719 159.564 46.9639 160.189 46.6345C160.837 46.3009 161.527 46.0695 162.26 45.9403C162.59 45.882 162.902 45.8514 163.194 45.8487C163.486 45.846 163.801 45.839 164.141 45.828C164.48 45.8169 164.759 45.7433 164.979 45.607C165.194 45.4472 165.316 45.1698 165.344 44.775C165.38 44.4274 165.297 44.1619 165.094 43.9783C164.91 43.767 164.645 43.6432 164.297 43.607C163.922 43.5514 163.517 43.5374 163.084 43.5651C162.673 43.5887 162.27 43.6477 161.872 43.7422C160.761 43.9381 159.731 44.3147 158.781 44.8721C157.832 45.4295 156.964 46.1064 156.178 46.9029C155.393 47.6995 154.683 48.5801 154.049 49.5449C153.434 50.4818 152.895 51.4299 152.43 52.3892C152.159 52.9244 151.92 53.5027 151.712 54.1241C151.501 54.7219 151.414 55.3343 151.451 55.9614C151.478 56.6635 151.663 57.2279 152.006 57.6548C152.369 58.0539 152.807 58.3299 153.322 58.4829C153.86 58.6317 154.426 58.6659 155.021 58.5853C155.64 58.5006 156.207 58.3276 156.721 58.0663C157.565 57.6007 158.359 57.0586 159.103 56.44C159.843 55.7978 160.568 55.1458 161.28 54.4842L160.431 57.339C159.554 58.0298 158.615 58.7193 157.615 59.4073C156.644 60.1149 155.69 60.8558 154.754 61.63C153.846 62.4237 153.019 63.264 152.274 64.1509C151.533 65.0615 150.992 66.0707 150.651 67.1788C150.356 68.1324 150.282 69.0229 150.428 69.8501C150.554 70.7052 150.868 71.3809 151.37 71.8773C151.848 72.3779 152.48 72.6442 153.266 72.6763C154.032 72.7362 154.897 72.4617 155.862 71.8529C156.364 71.5207 156.862 71.0307 157.357 70.3829C157.852 69.7351 158.319 68.9948 158.757 68.1621C159.199 67.353 159.605 66.4772 159.975 65.5347C160.373 64.6116 160.735 63.6947 161.062 62.7841C161.389 61.8735 161.675 61.0067 161.92 60.1837C162.192 59.3802 162.413 58.6955 162.581 58.1297C164.058 56.9676 165.457 55.7096 166.777 54.3556C168.122 52.9975 169.355 51.5615 170.478 50.0477C170.618 49.8767 170.768 49.6918 170.928 49.493C171.112 49.2901 171.246 49.0836 171.331 48.8737ZM159.582 60.1938C159.447 60.5344 159.266 61.0293 159.04 61.6786C158.813 62.3278 158.535 63.0347 158.207 63.7993C157.903 64.5598 157.553 65.3404 157.158 66.1411C156.763 66.9419 156.342 67.662 155.894 68.3014C155.47 68.9367 155.025 69.4539 154.559 69.8528C154.097 70.2754 153.634 70.479 153.168 70.4636C152.793 69.9937 152.647 69.4466 152.732 68.8224C152.817 68.1981 153.044 67.5489 153.412 66.8747C153.804 66.1963 154.281 65.5151 154.843 64.8311C155.429 64.143 156.008 63.4925 156.583 62.8794C157.185 62.2859 157.76 61.7458 158.308 61.2593C158.86 60.7964 159.284 60.4413 159.582 60.1938ZM189.94 43.8742C190.186 43.6115 190.308 43.3341 190.305 43.0422C190.322 42.7224 190.253 42.4666 190.097 42.2747C189.965 42.0787 189.777 41.9778 189.532 41.9723C189.283 41.943 189.026 42.0737 188.76 42.3642C188.369 42.7743 187.945 43.1294 187.486 43.4297C187.027 43.7299 186.562 43.9947 186.091 44.224C185.615 44.4297 185.137 44.6236 184.658 44.8057C184.174 44.9641 183.714 45.1183 183.277 45.2684C183.255 45.0043 183.235 44.7519 183.217 44.5114C183.199 44.2709 183.179 44.0186 183.156 43.7544C183.011 42.9272 182.694 42.2396 182.208 41.6918C181.717 41.1203 181.143 40.6976 180.485 40.4236C179.852 40.1455 179.168 39.998 178.433 39.9812C177.699 39.9644 177.012 40.0735 176.371 40.3083C175.73 40.5432 175.161 40.9115 174.665 41.4134C174.192 41.911 173.886 42.5255 173.747 43.2568C173.073 43.7168 172.439 44.2673 171.845 44.9081C171.275 45.5448 170.788 46.2399 170.385 46.9934C169.982 47.7468 169.683 48.5427 169.49 49.3811C169.316 50.1916 169.304 51.0223 169.454 51.8731C169.608 52.7476 169.905 53.463 170.344 54.0192C170.803 54.5475 171.347 54.939 171.977 55.1935C172.607 55.448 173.289 55.5836 174.023 55.6004C174.776 55.5894 175.533 55.456 176.292 55.2003C177.079 54.9641 177.825 54.5645 178.53 54.0015C179.23 53.4149 179.857 52.756 180.411 52.0248C180.988 51.2894 181.484 50.5075 181.898 49.6789C182.313 48.8504 182.637 48.0621 182.87 47.3142C183.41 47.1947 183.973 47.071 184.559 46.9432C185.142 46.7918 185.728 46.5909 186.318 46.3408C186.931 46.0864 187.545 45.7709 188.161 45.3942C188.773 44.9939 189.366 44.4872 189.94 43.8742ZM180.912 45.5392C180.62 45.542 180.303 45.537 179.959 45.5245C179.612 45.4883 179.264 45.4521 178.917 45.4159C178.565 45.3561 178.223 45.2823 177.891 45.1947C177.578 45.0793 177.296 44.9339 177.046 44.7587C176.494 44.393 176.214 43.9794 176.206 43.5178C176.197 43.0562 176.406 42.5808 176.832 42.0914C177.51 42.0693 178.11 42.0854 178.631 42.1397C179.153 42.1939 179.594 42.3476 179.955 42.6007C180.313 42.8302 180.571 43.1868 180.729 43.6706C180.883 44.1309 180.944 44.7537 180.912 45.5392ZM180.334 47.6517C180.067 48.2105 179.728 48.8431 179.316 49.5493C178.928 50.2513 178.469 50.8929 177.938 51.4739C177.43 52.0508 176.854 52.5179 176.211 52.8751C175.567 53.2323 174.86 53.3691 174.09 53.2856C173.395 53.2132 172.826 52.9601 172.384 52.5263C171.961 52.0646 171.749 51.4807 171.746 50.7744C171.752 49.7011 172.013 48.6925 172.529 47.7486C173.04 46.781 173.674 45.9504 174.429 45.2568C175.328 46.073 176.233 46.6445 177.144 46.9714C178.078 47.294 179.141 47.5208 180.334 47.6517ZM189.385 49.7479C189.153 49.8132 188.928 49.8528 188.711 49.8667C188.485 49.273 188.446 48.5 188.595 47.5477C188.767 46.5912 188.504 46.0649 187.804 45.9689C187.101 45.8493 186.651 46.2698 186.455 47.2304C186.255 48.1674 186.164 49.0364 186.184 49.8372C186.203 50.638 186.388 51.2754 186.74 51.7496C186.836 51.8789 186.93 51.9964 187.022 52.102C187.198 52.4121 187.496 52.579 187.914 52.6027C188.463 52.6764 189.054 52.5722 189.687 52.2901C190.343 52.0038 191.004 51.607 191.67 51.0996C192.356 50.5644 193.001 50.0119 193.608 49.442C194.214 48.872 195.123 47.9441 196.334 46.6583C196.26 47.2075 196.405 47.7545 196.769 48.2996C197.074 48.7821 197.444 49.0824 197.879 49.2006C198.31 49.2952 198.757 49.2772 199.222 49.1466C199.682 48.9924 200.153 48.763 200.636 48.4586C201.138 48.1264 201.629 47.7351 202.11 47.2847C202.587 46.8107 203.073 46.2498 203.568 45.602C203.542 46.1428 203.517 46.6954 203.495 47.2599C203.47 47.9467 203.639 48.5626 204.004 49.1077C204.308 49.5901 204.678 49.8905 205.113 50.0087C205.544 50.1033 205.992 50.0853 206.456 49.9547C206.916 49.8004 207.388 49.5711 207.87 49.2667C208.372 48.9345 208.834 48.5849 209.257 48.2179C209.699 47.8231 210.094 47.4367 210.442 47.0586C210.813 46.6763 211.098 46.358 211.297 46.1036C211.897 45.364 212.52 44.6085 213.164 43.837C213.803 43.0418 214.37 42.2474 214.863 41.4536C215.05 41.1283 215.126 40.7981 215.091 40.463C215.056 40.128 214.947 39.8548 214.764 39.6434C214.58 39.4321 214.366 39.3236 214.121 39.318C213.873 39.2888 213.627 39.4173 213.385 39.7037C213.152 40.0373 212.92 40.3828 212.691 40.7401C212.485 41.0932 212.253 41.4386 211.996 41.7764C211.661 42.2254 211.242 42.7502 210.738 43.3507C210.235 43.9513 209.696 44.5581 209.122 45.1711C208.567 45.7563 207.98 46.2984 207.361 46.7975C206.766 47.2923 206.221 47.6565 205.726 47.89C205.74 46.864 205.852 45.9061 206.06 45.0163C206.265 44.103 206.523 43.2167 206.834 42.3575C207.17 41.4942 207.531 40.6385 207.917 39.7905C208.304 38.9425 208.696 38.057 209.094 37.1339C209.244 36.7418 209.27 36.4082 209.173 36.1329C209.099 35.8534 208.942 35.6497 208.7 35.5218C208.482 35.3897 208.221 35.3625 207.918 35.4403C207.634 35.4903 207.376 35.6822 207.142 36.0158C206.729 36.576 206.346 37.1675 205.993 37.7903C205.659 38.3853 205.299 38.9727 204.914 39.5524C204.685 39.9096 204.484 40.3594 204.311 40.9016C204.249 40.9613 204.198 41.019 204.159 41.0746C203.925 41.4083 203.694 41.7537 203.464 42.111C203.259 42.4641 203.027 42.8095 202.77 43.1473C202.435 43.5964 202.066 44.0634 201.664 44.5486C201.258 45.0101 200.82 45.4285 200.35 45.8038C199.88 46.1791 199.398 46.4836 198.903 46.717C198.757 45.8898 198.91 44.9611 199.362 43.931C199.834 42.873 200.263 41.9201 200.649 41.072C201.036 40.224 201.428 39.3385 201.826 38.4154C201.723 37.9705 201.623 37.6104 201.526 37.3351C201.452 37.0556 201.358 36.8652 201.242 36.7636C201.15 36.658 200.953 36.644 200.65 36.7219C200.366 36.7719 200.108 36.9637 199.874 37.2973C199.461 37.8575 199.078 38.4491 198.725 39.0719C198.391 39.6669 198.032 40.2542 197.646 40.8339C196.943 41.9571 196.277 42.9518 195.65 43.8179C195.023 44.6839 194.36 45.4832 193.66 46.2158C192.961 46.9484 192.194 47.6441 191.36 48.303C190.761 48.7742 190.102 49.2559 189.385 49.7479ZM233.597 36.1763C233.844 35.9136 233.965 35.6362 233.963 35.3442C233.979 35.0245 233.91 34.7687 233.754 34.5768C233.622 34.3807 233.434 34.2799 233.189 34.2743C232.94 34.2451 232.683 34.3757 232.417 34.6663C232.027 35.0764 231.602 35.4315 231.143 35.7317C230.684 36.032 230.219 36.2968 229.748 36.5261C229.272 36.7318 228.795 36.9257 228.315 37.1077C227.831 37.2662 227.371 37.4204 226.934 37.5705C226.912 37.3063 226.892 37.054 226.874 36.8135C226.856 36.573 226.836 36.3206 226.814 36.0565C226.668 35.2292 226.352 34.5417 225.865 33.9939C225.374 33.4224 224.8 32.9997 224.143 32.7257C223.509 32.4475 222.825 32.3001 222.091 32.2833C221.357 32.2665 220.669 32.3755 220.028 32.6104C219.387 32.8453 218.818 33.2136 218.322 33.7154C217.849 34.2131 217.543 34.8276 217.404 35.5588C216.73 36.0189 216.096 36.5694 215.502 37.2102C214.932 37.8469 214.445 38.542 214.042 39.2954C213.639 40.0489 213.34 40.8448 213.147 41.6831C212.973 42.4936 212.961 43.3243 213.111 44.1752C213.265 45.0497 213.562 45.7651 214.001 46.3212C214.46 46.8496 215.004 47.241 215.634 47.4955C216.264 47.7501 216.946 47.8857 217.68 47.9025C218.433 47.8915 219.19 47.7581 219.949 47.5024C220.736 47.2662 221.482 46.8666 222.187 46.3036C222.887 45.717 223.515 45.0581 224.068 44.3269C224.645 43.5915 225.141 42.8095 225.555 41.981C225.97 41.1524 226.294 40.3642 226.527 39.6162C227.067 39.4968 227.63 39.3731 228.217 39.2453C228.799 39.0938 229.385 38.893 229.975 38.6428C230.588 38.3885 231.202 38.073 231.818 37.6963C232.43 37.296 233.023 36.7893 233.597 36.1763ZM224.569 37.8413C224.277 37.844 223.96 37.8391 223.616 37.8265C223.269 37.7904 222.921 37.7542 222.574 37.718C222.222 37.6581 221.88 37.5844 221.548 37.4968C221.235 37.3813 220.953 37.236 220.703 37.0608C220.151 36.6951 219.871 36.2814 219.863 35.8198C219.855 35.3583 220.063 34.8828 220.489 34.3935C221.167 34.3714 221.767 34.3874 222.288 34.4417C222.81 34.496 223.251 34.6497 223.613 34.9028C223.97 35.1322 224.228 35.4889 224.386 35.9727C224.54 36.4329 224.602 37.0558 224.569 37.8413ZM223.991 39.9537C223.724 40.5126 223.385 41.1451 222.974 41.8513C222.586 42.5534 222.126 43.1949 221.595 43.776C221.087 44.3529 220.512 44.8199 219.868 45.1771C219.224 45.5344 218.517 45.6712 217.747 45.5877C217.052 45.5153 216.483 45.2622 216.041 44.8283C215.619 44.3667 215.406 43.7828 215.403 43.0765C215.409 42.0032 215.67 40.9946 216.186 40.0507C216.697 39.0831 217.331 38.2525 218.086 37.5588C218.985 38.3751 219.89 38.9466 220.801 39.2734C221.735 39.5961 222.799 39.8229 223.991 39.9537ZM251.146 35.0559C251.333 34.7306 251.409 34.4004 251.374 34.0654C251.339 33.7303 251.23 33.4571 251.047 33.2458C250.863 33.0344 250.649 32.9259 250.404 32.9203C250.155 32.8911 249.91 33.0197 249.668 33.306C249.434 33.6397 249.203 33.9851 248.973 34.3424C248.768 34.6955 248.536 35.041 248.279 35.3788C247.944 35.8278 247.525 36.3526 247.021 36.9531C246.518 37.5536 245.979 38.1604 245.405 38.7734C244.85 39.3587 244.263 39.9008 243.644 40.3998C243.049 40.8947 242.504 41.2589 242.009 41.4924C242.023 40.4663 242.135 39.5084 242.343 38.6187C242.548 37.7053 242.806 36.819 243.117 35.9599C243.453 35.0966 243.813 34.2409 244.2 33.3929C244.587 32.5449 244.979 31.6593 245.377 30.7362C245.527 30.3442 245.553 30.0105 245.456 29.7352C245.382 29.4558 245.225 29.2521 244.983 29.1241C244.764 28.992 244.504 28.9649 244.201 29.0427C243.917 29.0927 243.658 29.2845 243.425 29.6181C243.012 30.1784 242.629 30.7699 242.276 31.3927C241.942 31.9877 241.582 32.575 241.197 33.1547C240.493 34.278 239.828 35.2726 239.201 36.1387C238.574 37.0047 237.911 37.8041 237.211 38.5366C236.512 39.2692 235.735 39.9789 234.881 40.6655C234.047 41.3244 233.071 42.0083 231.953 42.7172L232.508 40.6819C232.871 39.4237 233.361 38.192 233.977 36.9867C234.589 35.7578 235.221 34.5741 235.873 33.4355C236.063 33.1338 236.266 32.8301 236.48 32.5243C236.69 32.1948 236.864 31.8716 237.004 31.5546C237.147 31.2613 237.195 30.9846 237.15 30.7246C237.127 30.4605 236.963 30.2213 236.658 30.0072C236.328 29.7972 236.038 29.7388 235.786 29.8319C235.558 29.9208 235.333 30.0946 235.11 30.3531C234.849 30.6673 234.619 31.0246 234.422 31.425C234.22 31.8017 234.016 32.1666 233.811 32.5197C233.585 32.9006 233.306 33.3886 232.972 33.9836C232.638 34.5786 232.291 35.2368 231.931 35.9583C231.59 36.652 231.256 37.3812 230.928 38.1458C230.623 38.9062 230.364 39.6465 230.15 40.3667C229.959 41.0826 229.847 41.7604 229.814 42.3999C229.8 43.0116 229.915 43.5274 230.16 43.9473C230.485 44.548 230.922 44.8852 231.471 44.9589C232.016 45.0091 232.605 44.8931 233.238 44.6109C233.894 44.3246 234.555 43.9278 235.221 43.4204C235.906 42.8853 236.552 42.3327 237.159 41.7628C237.765 41.1929 238.304 40.6591 238.777 40.1614C239.269 39.6359 239.638 39.2419 239.885 38.9791C239.843 39.5714 239.809 40.2109 239.784 40.8977C239.755 41.5609 239.922 42.165 240.287 42.71C240.591 43.1925 240.961 43.4928 241.396 43.6111C241.827 43.7057 242.274 43.6876 242.739 43.557C243.199 43.4028 243.67 43.1734 244.153 42.869C244.655 42.5368 245.117 42.1872 245.54 41.8203C245.982 41.4255 246.377 41.039 246.725 40.6609C247.096 40.2786 247.381 39.9603 247.58 39.7059C248.18 38.9664 248.803 38.2108 249.446 37.4393C250.086 36.6442 250.653 35.8497 251.146 35.0559ZM245.853 24.1088C246.102 23.7237 246.187 23.3796 246.11 23.0765C246.051 22.7456 245.901 22.5162 245.659 22.3883C245.437 22.2325 245.151 22.1978 244.8 22.2839C244.473 22.3659 244.176 22.6133 243.907 23.0262C243.717 23.3279 243.487 23.6121 243.217 23.879C242.947 24.1459 242.673 24.3892 242.395 24.6088C242.117 24.8284 241.727 25.0314 241.223 25.2176C240.72 25.4038 240.372 25.5018 240.178 25.5115C239.82 25.5504 239.49 25.4746 239.188 25.284C238.906 25.0657 238.598 24.8398 238.264 24.6062C237.93 24.3725 237.552 24.1591 237.128 23.9658C236.727 23.7683 236.449 23.9879 236.293 24.6246C236.157 25.2336 236.272 25.7494 236.639 26.1721C237.006 26.5948 237.347 26.9368 237.661 27.1982C237.995 27.4319 238.362 27.6474 238.762 27.8449C239.182 28.0146 239.705 28.0807 240.332 28.0432C240.861 27.9988 241.394 27.8439 241.932 27.5784C242.47 27.3129 242.986 26.9904 243.479 26.611C243.973 26.2315 244.425 25.8228 244.835 25.3849C245.245 24.947 245.585 24.5217 245.853 24.1088ZM264.594 11.1903C264.014 11.2194 263.517 11.4411 263.102 11.8553C262.712 12.2654 262.353 12.7186 262.026 13.2149C261.875 13.4609 261.66 13.9009 261.382 14.5348C261.099 15.1451 260.8 15.795 260.483 16.4846C260.165 17.1741 259.868 17.8358 259.59 18.4698C259.335 19.0995 259.144 19.5354 259.016 19.7773C258.432 21.0257 257.901 22.2282 257.422 23.3848C256.94 24.5178 256.518 25.5793 256.156 26.5691C255.814 27.5311 255.528 28.3979 255.298 29.1695C255.069 29.9411 254.911 30.566 254.825 31.0442C254.719 31.5503 254.666 32.0104 254.666 32.4248C254.662 32.8154 254.923 33.1227 255.45 33.3466C255.688 33.4509 255.913 33.4843 256.126 33.4468C256.334 33.3857 256.523 33.2793 256.691 33.1278C256.855 32.9527 256.98 32.7601 257.064 32.5502C257.173 32.3361 257.22 32.1206 257.206 31.9038C257.179 31.0557 257.295 30.2674 257.557 29.5389C257.818 28.8105 258.136 27.9868 258.51 27.0678C258.706 26.5215 258.852 26.1058 258.948 25.8208C259.064 25.508 259.164 25.2467 259.249 25.0367C259.33 24.8032 259.408 24.5578 259.485 24.3006C259.585 24.0393 259.729 23.6847 259.919 23.2371C260.127 22.7617 260.398 22.1534 260.73 21.4125C261.082 20.6437 261.54 19.649 262.105 18.4284C262.778 16.9937 263.338 15.9567 263.786 15.3172C264.234 14.6777 264.575 14.2642 264.81 14.0765C265.127 13.8013 265.353 13.4934 265.488 13.1528C265.623 12.8122 265.677 12.498 265.651 12.2102C265.62 11.8988 265.515 11.6492 265.336 11.4615C265.157 11.2738 264.909 11.1834 264.594 11.1903ZM255.504 37.1755C255.083 36.8598 254.677 36.7729 254.288 36.9146C253.899 37.0564 253.538 37.2906 253.206 37.6173C252.873 37.9439 252.573 38.3137 252.305 38.7266C252.056 39.1116 251.851 39.4036 251.691 39.6024C251.395 39.9958 251.282 40.3934 251.353 40.7952C251.444 41.1692 251.632 41.4772 251.918 41.7191C252.224 41.9333 252.572 42.0424 252.963 42.0467C253.377 42.0467 253.733 41.85 254.029 41.4566C254.189 41.2578 254.433 40.9833 254.761 40.633C255.089 40.2827 255.378 39.915 255.627 39.5299C255.871 39.1212 256.019 38.7174 256.071 38.3184C256.118 37.8957 255.929 37.5148 255.504 37.1755Z" fill="#48C0C2"/>
</svg>
